<svg width="60" height="60" viewBox="0 0 60 60" fill="none" xmlns="http://www.w3.org/2000/svg">
<g id="Icon" clip-path="url(#clip0_6_639)">
<g id="&#234;&#183;&#184;&#235;&#163;&#185; 230">
<g id="Clip path group">
<mask id="mask0_6_639" style="mask-type:luminance" maskUnits="userSpaceOnUse" x="6" y="1" width="48" height="58">
<g id="clip-path">
<path id="&#236;&#130;&#172;&#234;&#176;&#129;&#237;&#152;&#149; 70" d="M53.6911 1.6814H6.30908V58.3184H53.6911V1.6814Z" fill="white"/>
</g>
</mask>
<g mask="url(#mask0_6_639)">
<g id="&#234;&#183;&#184;&#235;&#163;&#185; 229">
<path id="&#237;&#140;&#168;&#236;&#138;&#164; 183" d="M36.8721 58.3184H36.8381C36.613 58.3095 36.4006 58.2117 36.2476 58.0463C36.0946 57.8809 36.0135 57.6615 36.0221 57.4364C36.0293 56.2482 36.2379 55.0698 36.6391 53.9514C37.0941 52.7605 37.908 51.7404 38.9681 51.0324C39.3615 50.7759 39.7677 50.5395 40.1851 50.3244C40.752 50.0554 41.2848 49.7197 41.7721 49.3244L46.9101 43.5454L51.4521 38.1064C51.8473 37.6309 52.0376 37.018 51.9814 36.4023C51.9251 35.7866 51.6269 35.2184 51.1521 34.8224L51.0351 34.7224C50.5596 34.3273 49.9467 34.1369 49.3311 34.1932C48.7154 34.2494 48.1471 34.5476 47.7511 35.0224L43.5991 39.9694C43.5292 40.0603 43.4415 40.1361 43.3415 40.1922C43.2414 40.2483 43.1311 40.2836 43.017 40.296C42.903 40.3083 42.7876 40.2974 42.6779 40.264C42.5682 40.2306 42.4664 40.1753 42.3786 40.1015C42.2908 40.0277 42.2188 39.9369 42.1671 39.8345C42.1153 39.7321 42.0848 39.6204 42.0774 39.5059C42.0699 39.3915 42.0858 39.2767 42.1239 39.1685C42.162 39.0603 42.2216 38.9609 42.2991 38.8764L46.4501 33.9314C47.1362 33.1126 48.1191 32.5993 49.1831 32.5041C50.2471 32.4089 51.3055 32.7395 52.1261 33.4234L52.2431 33.5234C53.0625 34.2093 53.5764 35.1922 53.672 36.2564C53.7676 37.3207 53.4371 38.3795 52.7531 39.2004L48.2031 44.6494L48.1861 44.6694L43.0271 50.4694L43.0041 50.4944C42.3998 51.0324 41.7211 51.4807 40.9891 51.8254C40.5841 52.0434 40.2011 52.2504 39.9271 52.4384C38.2131 53.6144 37.8051 55.3164 37.7181 57.5084C37.7093 57.7275 37.6162 57.9348 37.4582 58.0869C37.3001 58.2389 37.0894 58.3241 36.8701 58.3244" fill="#6B7280"/>
<path id="&#237;&#140;&#168;&#236;&#138;&#164; 184" d="M42.9521 40.2654C42.7896 40.266 42.6304 40.2199 42.4933 40.1328C42.3562 40.0457 42.2469 39.9211 42.1784 39.7738C42.1099 39.6265 42.0851 39.4626 42.1068 39.3016C42.1286 39.1407 42.196 38.9893 42.3011 38.8654L47.4401 32.7374C47.8349 32.2619 48.0251 31.6493 47.9688 31.0339C47.9126 30.4184 47.6145 29.8504 47.1401 29.4544L47.0231 29.3544C46.5478 28.9587 45.9348 28.7681 45.319 28.8243C44.7031 28.8806 44.1348 29.1792 43.7391 29.6544L38.5991 35.7834C38.5296 35.8753 38.442 35.9522 38.3419 36.0092C38.2417 36.0663 38.131 36.1024 38.0164 36.1153C37.9019 36.1282 37.7859 36.1177 37.6755 36.0844C37.5652 36.051 37.4627 35.9956 37.3745 35.9215C37.2862 35.8473 37.2139 35.756 37.1621 35.6531C37.1102 35.5501 37.0798 35.4377 37.0728 35.3226C37.0657 35.2075 37.0821 35.0923 37.121 34.9837C37.1599 34.8752 37.2205 34.7758 37.2991 34.6914L42.4381 28.5634C43.1235 27.7435 44.1064 27.2294 45.1707 27.1339C46.2351 27.0385 47.2938 27.3696 48.1141 28.0544L48.2311 28.1544C49.0505 28.8403 49.5643 29.8232 49.6599 30.8874C49.7556 31.9517 49.4251 33.0105 48.7411 33.8314L43.6011 39.9604C43.5209 40.055 43.421 40.1309 43.3084 40.1828C43.1957 40.2346 43.0731 40.2611 42.9491 40.2604" fill="#6B7280"/>
<path id="&#237;&#140;&#168;&#236;&#138;&#164; 185" d="M37.854 36.0074C37.6916 36.008 37.5324 35.9619 37.3952 35.8748C37.2581 35.7877 37.1489 35.6631 37.0804 35.5158C37.0119 35.3685 36.987 35.2046 37.0087 35.0436C37.0305 34.8826 37.0979 34.7313 37.203 34.6074L42.342 28.4794C42.7373 28.0043 42.9278 27.3917 42.8715 26.7763C42.8152 26.1608 42.5169 25.5929 42.042 25.1974L41.925 25.0974C41.4495 24.7023 40.8367 24.5119 40.221 24.5682C39.6053 24.6244 39.0371 24.9226 38.641 25.3974C38.4917 25.5523 38.2892 25.6448 38.0743 25.6562C37.8594 25.6677 37.6482 25.5972 37.4833 25.459C37.3184 25.3208 37.212 25.1253 37.1856 24.9117C37.1592 24.6982 37.2147 24.4826 37.341 24.3084C37.6804 23.9021 38.0964 23.5666 38.5654 23.321C39.0344 23.0755 39.5472 22.9248 40.0744 22.8774C40.6017 22.83 41.1331 22.887 41.6383 23.045C42.1436 23.2031 42.6127 23.4591 43.019 23.7984L43.136 23.8984C43.9563 24.5837 44.4709 25.5667 44.5665 26.6313C44.6622 27.6959 44.3311 28.7549 43.646 29.5754L38.506 35.7054C38.4259 35.8 38.326 35.8759 38.2133 35.9278C38.1007 35.9796 37.978 36.0061 37.854 36.0054" fill="#6B7280"/>
<path id="&#237;&#140;&#168;&#236;&#138;&#164; 186" d="M19.4971 58.3184H19.4731C19.248 58.3119 19.0346 58.2163 18.88 58.0526C18.7253 57.8889 18.6419 57.6705 18.6481 57.4454C18.6481 57.3724 18.8481 50.1454 18.5241 47.3524C18.2206 46.1372 17.7794 44.9606 17.2091 43.8454C16.5439 42.4835 16.0027 41.0644 15.5921 39.6054C15.3581 38.5864 14.8731 33.0804 14.8111 32.3664C14.7821 32.1424 14.7591 31.9224 14.7351 31.6894C14.5541 29.9304 14.3481 27.9364 11.3181 24.0464L6.69607 18.5854C6.67713 18.5631 6.65944 18.5397 6.64307 18.5154C6.49844 18.304 6.39778 18.0658 6.34706 17.8147C6.29634 17.5637 6.29659 17.3051 6.3478 17.0541C6.39901 16.8032 6.50014 16.5651 6.64517 16.354C6.79021 16.143 6.97619 15.9632 7.19207 15.8254C8.61609 14.803 10.3701 14.3483 12.1115 14.55C13.8529 14.7518 15.4565 15.5955 16.6091 16.9164L16.6361 16.9484C16.8241 17.1794 21.2541 22.6324 22.2361 24.0484C23.2001 25.4404 24.1761 26.1884 25.1361 26.2724C26.0721 26.3524 27.1251 25.8114 28.2661 24.6624L44.7291 5.2774C45.4231 4.37057 46.4475 3.77486 47.5789 3.62014C48.7103 3.46541 49.857 3.76421 50.7691 4.45141C51.621 5.23214 52.1349 6.3143 52.2016 7.46794C52.2682 8.62158 51.8824 9.75574 51.1261 10.6294L33.6831 31.2294C33.6108 31.3148 33.5225 31.3851 33.4231 31.4363C33.3237 31.4875 33.2152 31.5186 33.1038 31.5279C32.9923 31.5372 32.8802 31.5245 32.7737 31.4904C32.6672 31.4563 32.5684 31.4016 32.4831 31.3294C32.3977 31.2572 32.3274 31.1688 32.2762 31.0694C32.225 30.9701 32.1938 30.8615 32.1845 30.7501C32.1753 30.6387 32.188 30.5265 32.2221 30.42C32.2561 30.3135 32.3108 30.2148 32.3831 30.1294L49.8221 9.5294C50.2931 9.00368 50.5413 8.31543 50.5143 7.61007C50.4872 6.90471 50.187 6.2375 49.6771 5.7494C49.1093 5.3519 48.408 5.19378 47.7246 5.30924C47.0412 5.42469 46.4307 5.80445 46.0251 6.3664L29.5321 25.7774C29.5181 25.7934 29.5041 25.8084 29.4891 25.8234C27.9681 27.3654 26.4511 28.0824 24.9811 27.9554C23.4921 27.8264 22.0951 26.8344 20.8291 25.0064C19.9141 23.6854 15.6011 18.3714 15.3291 18.0324C14.4436 17.019 13.2087 16.3764 11.8706 16.2328C10.5325 16.0892 9.18947 16.455 8.10907 17.2574C8.0648 17.2859 8.03263 17.3297 8.01879 17.3805C8.00494 17.4313 8.01038 17.4854 8.03407 17.5324L12.6341 22.9604L12.6561 22.9874C15.9971 27.2714 16.2391 29.6244 16.4341 31.5144C16.4571 31.7424 16.4791 31.9564 16.5071 32.1654C16.5071 32.1774 16.5071 32.1894 16.5071 32.2014C16.7201 34.6464 17.0941 38.5344 17.2531 39.2254C17.6422 40.5758 18.1482 41.8897 18.7651 43.1524C19.4176 44.418 19.9043 45.7624 20.2131 47.1524C20.5511 50.0624 20.3561 57.1874 20.3471 57.4894C20.3408 57.7105 20.2487 57.9204 20.0901 58.0746C19.9316 58.2289 19.7192 58.3152 19.4981 58.3154" fill="#6B7280"/>
<path id="&#237;&#140;&#168;&#236;&#138;&#164; 187" d="M26.3061 10.9014L19.7771 12.8784L22.7081 14.5204C22.8638 14.6077 23.0008 14.7248 23.1113 14.865C23.2218 15.0052 23.3036 15.1658 23.3521 15.3377C23.4005 15.5095 23.4146 15.6892 23.3936 15.8665C23.3726 16.0437 23.3168 16.2152 23.2296 16.3709C23.1423 16.5267 23.0252 16.6637 22.885 16.7742C22.7448 16.8847 22.5842 16.9665 22.4123 17.0149C22.2405 17.0633 22.0608 17.0774 21.8835 17.0564C21.7062 17.0354 21.5348 16.9797 21.3791 16.8924L15.6601 13.6924C15.5042 13.6052 15.3672 13.488 15.2566 13.3478C15.1461 13.2075 15.0643 13.0468 15.0159 12.8749C14.9675 12.703 14.9535 12.5232 14.9746 12.3459C14.9958 12.1686 15.0516 11.9971 15.1391 11.8414L18.2121 6.36541C18.2995 6.20973 18.4167 6.07278 18.557 5.9624C18.6973 5.85201 18.858 5.77034 19.0299 5.72205C19.2017 5.67377 19.3815 5.65981 19.5587 5.68097C19.736 5.70214 19.9074 5.75802 20.0631 5.84541C20.2187 5.9328 20.3557 6.05 20.4661 6.19032C20.5765 6.33064 20.6581 6.49133 20.7064 6.66321C20.7547 6.83509 20.7687 7.0148 20.7475 7.19208C20.7263 7.36935 20.6705 7.54073 20.5831 7.69641L19.1631 10.2274L25.5181 8.30341C25.8592 8.21105 26.2229 8.2552 26.532 8.4265C26.8411 8.5978 27.0713 8.88278 27.1738 9.221C27.2763 9.55921 27.243 9.92405 27.081 10.2381C26.919 10.5522 26.6411 10.7909 26.3061 10.9034" fill="#6B7280"/>
<path id="&#237;&#140;&#168;&#236;&#138;&#164; 188" d="M30.7721 10.0964L37.3011 8.1194L35.7731 11.1114C35.609 11.4324 35.5792 11.8055 35.6903 12.1485C35.8013 12.4915 36.044 12.7764 36.3651 12.9404C36.6861 13.1044 37.0592 13.1342 37.4022 13.0232C37.7452 12.9122 38.03 12.6694 38.1941 12.3484L41.1751 6.5114C41.2564 6.35234 41.3057 6.17879 41.3199 6.00068C41.3342 5.82257 41.3131 5.6434 41.2581 5.47343C41.203 5.30345 41.1149 5.14601 40.9989 5.0101C40.8829 4.8742 40.7413 4.7625 40.5821 4.6814L34.9881 1.8304C34.829 1.74931 34.6556 1.70034 34.4776 1.68628C34.2997 1.67222 34.1207 1.69334 33.9509 1.74846C33.7811 1.80357 33.6238 1.89158 33.488 2.00748C33.3523 2.12337 33.2406 2.26487 33.1596 2.4239C33.0785 2.58293 33.0295 2.75638 33.0154 2.93433C33.0014 3.11229 33.0225 3.29128 33.0776 3.46107C33.1327 3.63086 33.2207 3.78813 33.3366 3.92391C33.4525 4.05969 33.594 4.17131 33.7531 4.2524L36.3381 5.5704L29.9831 7.4944C29.8075 7.54194 29.6433 7.62423 29.5001 7.7364C29.3569 7.84857 29.2377 7.98834 29.1496 8.14743C29.0614 8.30651 29.0061 8.48168 28.9869 8.66254C28.9676 8.8434 28.9849 9.02628 29.0377 9.20034C29.0904 9.3744 29.1776 9.5361 29.294 9.67586C29.4104 9.81562 29.5536 9.9306 29.7153 10.014C29.8769 10.0973 30.0537 10.1474 30.235 10.1612C30.4164 10.1751 30.5987 10.1523 30.7711 10.0944" fill="#6B7280"/>
</g>
</g>
</g>
</g>
</g>
<defs>
<clipPath id="clip0_6_639">
<rect width="60" height="60" fill="white"/>
</clipPath>
</defs>
</svg>
