<svg width="60" height="60" viewBox="0 0 60 60" fill="none" xmlns="http://www.w3.org/2000/svg">
<g id="Icon">
<g id="Group 2">
<path id="&#237;&#140;&#168;&#236;&#138;&#164; 104" d="M20.1723 34.5525C19.4037 34.5514 18.6519 34.3282 18.0072 33.9099C17.3625 33.4916 16.8524 32.8959 16.5383 32.1945L13.7053 25.8535C13.2762 24.8899 13.2469 23.7955 13.6237 22.8104C14.0005 21.8252 14.7527 21.0297 15.7153 20.5985L15.8593 20.5295C16.8228 20.1004 17.9172 20.0711 18.9024 20.4479C19.8875 20.8247 20.683 21.5769 21.1143 22.5395L23.9473 28.8805C24.3763 29.844 24.4056 30.9384 24.0288 31.9236C23.652 32.9087 22.8998 33.7042 21.9373 34.1355L21.7893 34.2015C21.2795 34.4303 20.7271 34.5489 20.1683 34.5495M17.4783 21.9405C17.168 21.9409 16.8614 22.0067 16.5783 22.1335L16.4303 22.1995C15.8926 22.4397 15.4724 22.8837 15.262 23.4337C15.0516 23.9837 15.0682 24.5947 15.3083 25.1325L18.1413 31.4745C18.3815 32.0121 18.8254 32.4323 19.3754 32.6427C19.9255 32.8531 20.5365 32.8365 21.0743 32.5965L21.2223 32.5305C21.7595 32.2898 22.1794 31.8458 22.3897 31.296C22.6001 30.7461 22.5837 30.1353 22.3442 29.5975L19.5113 23.2555C19.3358 22.8636 19.0506 22.531 18.6902 22.2976C18.3298 22.0643 17.9096 21.9402 17.4803 21.9405" fill="#6B7280"/>
<path id="&#237;&#140;&#168;&#236;&#138;&#164; 105 (Stroke)" d="M17.7366 8.62928C17.2857 8.80704 16.9027 9.19494 16.7036 9.758C16.5026 10.3266 16.5141 11.0144 16.7694 11.6621L19.4756 18.5236L20.7761 22.0276L18.4885 21.6119L17.6076 19.2385L14.9089 12.3959C14.4898 11.3326 14.4449 10.1468 14.818 9.09141C15.193 8.03046 15.9676 7.17686 17.0031 6.76864L17.1174 6.72371C17.6271 6.52292 18.1742 6.44114 18.7229 6.47932C19.2711 6.51747 19.8067 6.67393 20.3003 6.9309C20.7936 7.18772 21.2371 7.54075 21.6099 7.96497C21.9809 8.38719 22.2778 8.87516 22.4862 9.40133L25.2995 16.2319L28.7943 25.0869C28.997 25.6007 28.7449 26.1815 28.2312 26.3842C27.7175 26.587 27.1367 26.3349 26.9339 25.8211L23.4446 16.9799L20.6313 10.1494L20.6285 10.1423C20.503 9.82404 20.3251 9.53276 20.1076 9.28518C19.89 9.0376 19.6402 8.84206 19.3767 8.70487C19.1135 8.56784 18.8437 8.49257 18.584 8.4745C18.325 8.45647 18.0769 8.49526 17.8507 8.5844L17.7366 8.62928Z" fill="#6B7280"/>
<path id="&#237;&#140;&#168;&#236;&#138;&#164; 106" d="M28.1039 26.4005C27.9011 26.4003 27.7046 26.3301 27.5477 26.2016C27.3907 26.0731 27.2831 25.8943 27.2429 25.6955L23.2239 5.77247C23.0091 4.74073 23.2125 3.6659 23.7894 2.78396C24.3663 1.90202 25.2695 1.28503 26.3009 1.06847L26.4599 1.03547C27.4925 0.818818 28.5689 1.02116 29.4523 1.59799C30.3358 2.17483 30.954 3.07893 31.1709 4.11147L33.9849 17.5115L36.7989 4.11147C37.0166 3.07928 37.6349 2.17561 38.5181 1.59875C39.4013 1.02188 40.4773 0.818947 41.5099 1.03447L41.6689 1.06747C42.7015 1.28443 43.6056 1.9026 44.1824 2.78604C44.7592 3.66948 44.9616 4.74586 44.7449 5.77847L41.0389 23.4255C41.0177 23.5408 40.9735 23.6506 40.9092 23.7486C40.8448 23.8466 40.7615 23.9307 40.6641 23.996C40.5667 24.0613 40.4573 24.1065 40.3422 24.1288C40.2271 24.1512 40.1087 24.1503 39.994 24.1262C39.8792 24.1021 39.7705 24.0554 39.6741 23.9886C39.5777 23.9219 39.4956 23.8365 39.4327 23.7376C39.3698 23.6386 39.3274 23.5281 39.3078 23.4125C39.2883 23.2969 39.292 23.1786 39.3189 23.0645L43.0249 5.41747C43.146 4.84102 43.0331 4.2401 42.7111 3.74688C42.3891 3.25367 41.8844 2.90856 41.3079 2.78747L41.1489 2.75447C40.5725 2.63397 39.9719 2.74709 39.4788 3.06899C38.9857 3.3909 38.6405 3.8953 38.5189 4.47147L35.3499 19.5655C35.2839 19.8786 35.1123 20.1595 34.8637 20.3611C34.6152 20.5627 34.3049 20.6727 33.9849 20.6727C33.6649 20.6727 33.3546 20.5627 33.1061 20.3611C32.8576 20.1595 32.6859 19.8786 32.6199 19.5655L29.4499 4.47147C29.3288 3.89503 28.9837 3.3903 28.4905 3.0683C27.9973 2.74631 27.3964 2.63342 26.8199 2.75447L26.6609 2.78747C26.0845 2.90856 25.5798 3.25367 25.2578 3.74688C24.9358 4.2401 24.8229 4.84102 24.9439 5.41747L28.9669 25.3485C29.0129 25.5769 28.9662 25.8143 28.8372 26.0084C28.7082 26.2025 28.5074 26.3374 28.2789 26.3835C28.2213 26.3949 28.1627 26.4006 28.1039 26.4005Z" fill="#6B7280"/>
<path id="&#237;&#140;&#168;&#236;&#138;&#164; 107" d="M37.03 59.0465C36.7969 59.0465 36.5733 58.9539 36.4085 58.7891C36.2436 58.6242 36.151 58.4006 36.151 58.1675V51.8265C36.151 51.8125 36.151 51.7985 36.151 51.7855C36.2498 49.6036 37.1835 47.5432 38.759 46.0305C40.621 44.2375 43.187 41.6075 44.55 40.1995C44.712 40.0318 44.8377 39.8327 44.9194 39.6144C45.0011 39.3961 45.0371 39.1633 45.025 38.9305L44.512 27.7305C44.482 27.0833 44.2387 26.4642 43.8199 25.9698C43.4011 25.4754 42.8305 25.1335 42.197 24.9975L34.097 23.2615C34.0449 23.2504 33.9909 23.2508 33.939 23.2627C33.887 23.2747 33.8383 23.2979 33.7963 23.3307C33.7542 23.3634 33.7199 23.405 33.6957 23.4525C33.6714 23.5 33.6579 23.5522 33.656 23.6055L33.626 24.5055C33.5988 25.271 33.8309 26.0232 34.2846 26.6403C34.7384 27.2574 35.3872 27.7032 36.126 27.9055L38.844 28.6585C39.5078 28.8435 40.0814 29.2641 40.4575 29.8415C40.8335 30.4189 40.9862 31.1136 40.887 31.7955L40.647 33.4295C40.5708 33.9667 40.2876 34.4527 39.8578 34.7838C39.4281 35.1149 38.8858 35.2648 38.347 35.2015C36.0466 34.9167 33.7165 34.9801 31.435 35.3895C28.362 36.0215 26.368 37.4425 25.508 39.6115C25.4197 39.8248 25.251 39.9947 25.0384 40.0847C24.8259 40.1746 24.5864 40.1774 24.3719 40.0923C24.1573 40.0072 23.9848 39.8411 23.8916 39.6299C23.7985 39.4187 23.7922 39.1793 23.874 38.9635C24.966 36.2075 27.391 34.4255 31.081 33.6635C33.5455 33.2172 36.0632 33.1457 38.549 33.4515C38.6345 33.4615 38.7205 33.4375 38.7886 33.3848C38.8566 33.3321 38.9013 33.2548 38.913 33.1695L39.153 31.5355C39.1905 31.2775 39.1328 31.0146 38.9905 30.7961C38.8482 30.5777 38.6312 30.4185 38.38 30.3485L35.662 29.5955C34.542 29.2879 33.5586 28.6113 32.8711 27.6751C32.1837 26.739 31.8323 25.5982 31.874 24.4375L31.904 23.5375C31.9151 23.2276 31.994 22.9239 32.135 22.6477C32.2761 22.3716 32.4759 22.1297 32.7205 21.939C32.9651 21.7484 33.2485 21.6136 33.5507 21.5443C33.853 21.4749 34.1668 21.4726 34.47 21.5375L42.57 23.2735C43.5827 23.4916 44.4947 24.0386 45.164 24.8292C45.8333 25.6199 46.2221 26.6097 46.27 27.6445L46.783 38.8445C46.8067 39.3176 46.733 39.7905 46.5665 40.234C46.4 40.6774 46.1442 41.0819 45.815 41.4225C44.444 42.8385 41.862 45.4855 39.98 47.2965C38.7334 48.4931 37.9923 50.1216 37.909 51.8475V58.1665C37.909 58.3996 37.8164 58.6232 37.6516 58.788C37.4867 58.9529 37.2631 59.0465 37.03 59.0465Z" fill="#6B7280"/>
<path id="&#237;&#140;&#168;&#236;&#138;&#164; 108" d="M20.3918 59.0495C20.1587 59.0495 19.9351 58.9569 19.7703 58.7921C19.6054 58.6272 19.5128 58.4036 19.5128 58.1705V51.0925C19.5162 49.7507 19.1208 48.4382 18.3768 47.3215L16.3028 44.2105C14.8447 42.0279 14.0675 39.4614 14.0698 36.8365V33.3365C14.0698 33.1034 14.1624 32.8798 14.3273 32.715C14.4921 32.5501 14.7157 32.4575 14.9488 32.4575C15.182 32.4575 15.4055 32.5501 15.5704 32.715C15.7352 32.8798 15.8278 33.1034 15.8278 33.3365V36.8365C15.8253 39.1146 16.4995 41.3421 17.7648 43.2365L19.8388 46.3475C20.7766 47.7511 21.2764 49.4015 21.2748 51.0895V58.1675C21.2748 58.2829 21.2521 58.3973 21.2079 58.5039C21.1637 58.6106 21.099 58.7074 21.0174 58.7891C20.9358 58.8707 20.8389 58.9354 20.7322 58.9796C20.6256 59.0238 20.5113 59.0465 20.3958 59.0465" fill="#6B7280"/>
</g>
</g>
</svg>
