<svg width="60" height="60" viewBox="0 0 60 60" fill="none" xmlns="http://www.w3.org/2000/svg">
<g id="Icon">
<g id="Group 8">
<path id="&#237;&#140;&#168;&#236;&#138;&#164; 263" d="M44.2831 31.377C44.1566 31.3769 44.0316 31.3496 43.9166 31.2968C43.8016 31.2441 43.6993 31.1672 43.6168 31.0713C43.5342 30.9754 43.4732 30.8629 43.4381 30.7414C43.403 30.6198 43.3945 30.4921 43.4131 30.367L45.8022 14.527C45.8022 14.513 45.8021 14.5 45.8091 14.486C45.884 14.0021 45.7693 13.508 45.4887 13.1067C45.2082 12.7054 44.7835 12.4279 44.3034 12.3321C43.8232 12.2363 43.3246 12.3295 42.9115 12.5924C42.4984 12.8552 42.2027 13.2674 42.0862 13.743L39.2862 26.98C39.2623 27.0929 39.2163 27.2 39.151 27.2952C39.0857 27.3904 39.0023 27.4718 38.9056 27.5348C38.8088 27.5977 38.7006 27.641 38.5871 27.6622C38.4736 27.6833 38.3571 27.6819 38.2441 27.658C38.1312 27.6341 38.0241 27.5882 37.9289 27.5229C37.8337 27.4576 37.7523 27.3742 37.6894 27.2774C37.6264 27.1806 37.5831 27.0724 37.562 26.9589C37.5408 26.8455 37.5423 26.7289 37.5662 26.616L40.3662 13.389C40.56 12.4435 41.1199 11.6131 41.9237 11.0788C42.7274 10.5445 43.7098 10.3497 44.6566 10.5368C45.6035 10.724 46.4379 11.278 46.9778 12.0779C47.5178 12.8778 47.7196 13.8589 47.5392 14.807L45.1512 30.627C45.1198 30.8349 45.015 31.0246 44.8558 31.1618C44.6965 31.2991 44.4934 31.3747 44.2831 31.375" fill="#6B7280"/>
<path id="&#237;&#140;&#168;&#236;&#138;&#164; 264" d="M31.6732 27.678C31.6462 27.678 31.6192 27.678 31.5922 27.678C31.4772 27.6675 31.3654 27.6344 31.2632 27.5806C31.161 27.5269 31.0704 27.4535 30.9966 27.3647C30.9228 27.2759 30.8672 27.1735 30.8329 27.0632C30.7987 26.9529 30.7866 26.837 30.7972 26.722L32.4572 8.63302C32.5562 7.62489 33.0435 6.69483 33.8161 6.03967C34.5887 5.3845 35.5859 5.05565 36.5966 5.12269C37.6074 5.18974 38.5524 5.64743 39.2317 6.3989C39.911 7.15037 40.2712 8.13665 40.2362 9.14902L39.3022 26.849C39.2844 27.0777 39.1779 27.2903 39.0055 27.4416C38.8331 27.5929 38.6083 27.6707 38.3793 27.6586C38.1503 27.6464 37.935 27.5453 37.7796 27.3766C37.6241 27.208 37.5407 26.9853 37.5472 26.756L38.4812 9.05002C38.5 8.76958 38.4634 8.48818 38.3735 8.22188C38.2836 7.95557 38.1421 7.70959 37.9572 7.49797C37.7722 7.28634 37.5473 7.11322 37.2955 6.98849C37.0436 6.86376 36.7696 6.78987 36.4892 6.77102C36.2087 6.75218 35.9273 6.78875 35.661 6.87866C35.3947 6.96857 35.1487 7.11005 34.9371 7.29502C34.7255 7.48 34.5524 7.70485 34.4276 7.95672C34.3029 8.2086 34.229 8.48258 34.2102 8.76302C34.2102 8.77102 34.2102 8.77902 34.2102 8.78702L32.5492 26.887C32.5295 27.1053 32.4289 27.3084 32.2672 27.4564C32.1055 27.6044 31.8944 27.6867 31.6752 27.687" fill="#6B7280"/>
<path id="&#237;&#140;&#168;&#236;&#138;&#164; 265" d="M25.1132 27.681C24.882 27.681 24.6601 27.5899 24.4955 27.4275C24.331 27.265 24.2371 27.0442 24.2342 26.813L23.9702 5.113C23.9686 4.10075 24.3691 3.1293 25.0835 2.41221C25.798 1.69513 26.768 1.29112 27.7802 1.289C28.7875 1.28899 29.7538 1.68776 30.4679 2.39814C31.1821 3.10852 31.5859 4.07273 31.5912 5.08L32.5472 26.762C32.5545 26.8786 32.5385 26.9955 32.5002 27.1058C32.4618 27.2162 32.4018 27.3178 32.3237 27.4046C32.2456 27.4915 32.151 27.562 32.0453 27.6119C31.9397 27.6618 31.8252 27.6901 31.7085 27.6952C31.5917 27.7003 31.4752 27.6821 31.3656 27.6417C31.256 27.6012 31.1555 27.5393 31.0701 27.4596C30.9847 27.3799 30.9161 27.2839 30.8682 27.1774C30.8203 27.0708 30.7941 26.9558 30.7912 26.839L29.8342 5.139C29.8342 5.126 29.8342 5.113 29.8342 5.1C29.8342 4.55551 29.6179 4.03332 29.2329 3.64831C28.8479 3.2633 28.3257 3.047 27.7812 3.047C27.237 3.0478 26.7152 3.26435 26.3304 3.64919C25.9456 4.03403 25.729 4.55576 25.7282 5.1L25.9912 26.792C25.9939 27.025 25.904 27.2494 25.7412 27.4161C25.5784 27.5828 25.3562 27.6781 25.1232 27.681H25.1132Z" fill="#6B7280"/>
<path id="&#237;&#140;&#168;&#236;&#138;&#164; 266" d="M22.1202 58.163C21.8871 58.163 21.6635 58.0704 21.4987 57.9055C21.3338 57.7407 21.2412 57.5171 21.2412 57.284V51.133C21.2407 50.6658 21.1439 50.2038 20.9569 49.7758C20.7698 49.3477 20.4966 48.9628 20.1542 48.645L11.6012 40.727C11.0513 40.2192 10.6141 39.6016 10.3182 38.914L5.84324 28.556C5.42726 27.6523 5.38087 26.6217 5.71396 25.6843C6.04706 24.7468 6.73328 23.9766 7.62624 23.538C8.07396 23.3215 8.5605 23.1967 9.05717 23.1711C9.55385 23.1455 10.0506 23.2196 10.5182 23.389C11.0058 23.5615 11.4547 23.8284 11.839 24.1745C12.2234 24.5206 12.5357 24.9391 12.7582 25.406C13.1242 26.185 13.8872 27.85 14.5582 29.319C15.1122 30.528 15.6352 31.67 15.8442 32.119C15.8859 32.2089 15.9562 32.2824 16.0442 32.328L19.0492 32.68L14.7542 9.46599C14.6347 8.95274 14.6204 8.42058 14.7122 7.90166C14.8041 7.38273 15.0001 6.8878 15.2885 6.44675C15.577 6.0057 15.9518 5.62768 16.3904 5.33551C16.829 5.04335 17.3222 4.8431 17.8403 4.74686C18.3585 4.65062 18.8907 4.66039 19.405 4.77557C19.9192 4.89075 20.4048 5.10895 20.8324 5.41701C21.2599 5.72507 21.6206 6.11659 21.8927 6.56792C22.1647 7.01925 22.3425 7.52104 22.4152 8.04299L25.9762 26.638C26.0012 26.7526 26.003 26.871 25.9815 26.9863C25.9599 27.1016 25.9156 27.2114 25.851 27.3093C25.7864 27.4072 25.7028 27.4911 25.6053 27.5562C25.5077 27.6213 25.3981 27.6662 25.2829 27.6883C25.1677 27.7104 25.0493 27.7092 24.9346 27.6848C24.8199 27.6604 24.7112 27.6133 24.615 27.5463C24.5187 27.4793 24.4369 27.3937 24.3742 27.2945C24.3116 27.1954 24.2694 27.0847 24.2502 26.969L20.6912 8.36899C20.6457 8.08784 20.5444 7.81862 20.3934 7.57713C20.2424 7.33564 20.0447 7.12674 19.8119 6.96268C19.579 6.79863 19.3158 6.68272 19.0376 6.62176C18.7594 6.5608 18.4718 6.55602 18.1917 6.6077C17.9116 6.65938 17.6447 6.76647 17.4065 6.92269C17.1684 7.07892 16.9638 7.28113 16.8049 7.51747C16.6459 7.75381 16.5358 8.01951 16.4809 8.29899C16.426 8.57846 16.4275 8.86609 16.4852 9.14498L21.0032 33.532C21.0283 33.6674 21.0212 33.8067 20.9825 33.9389C20.9439 34.071 20.8747 34.1922 20.7806 34.2927C20.6865 34.3932 20.5702 34.4702 20.4409 34.5175C20.3116 34.5648 20.173 34.5811 20.0362 34.565L15.7362 34.065C15.6781 34.0584 15.6209 34.046 15.5652 34.028C15.2796 33.9342 15.0161 33.7831 14.7909 33.584C14.5657 33.3849 14.3834 33.1419 14.2552 32.87C14.0432 32.418 13.5182 31.27 12.9622 30.059C12.2912 28.593 11.5302 26.932 11.1682 26.159C11.0456 25.9011 10.8732 25.67 10.6609 25.479C10.4486 25.2879 10.2006 25.1408 9.93124 25.046C9.68314 24.955 9.41933 24.9145 9.15536 24.9271C8.89138 24.9396 8.63259 25.0049 8.39424 25.119C7.91414 25.3553 7.54556 25.7701 7.36729 26.2747C7.18902 26.7792 7.2152 27.3335 7.44024 27.819L7.45124 27.844L11.9322 38.214C12.1315 38.6767 12.4259 39.0924 12.7962 39.434L21.3492 47.352C21.8692 47.8345 22.2842 48.419 22.5682 49.069C22.8523 49.719 22.9993 50.4206 23.0002 51.13V57.282C23.0002 57.5151 22.9076 57.7387 22.7428 57.9035C22.5779 58.0684 22.3544 58.161 22.1212 58.161" fill="#6B7280"/>
<path id="&#237;&#140;&#168;&#236;&#138;&#164; 267" d="M27.5183 36.516C27.3065 36.5161 27.1019 36.4394 26.9423 36.3C25.6293 35.158 24.0273 35 22.1723 34.823C21.4723 34.755 20.7483 34.685 19.9923 34.559C19.7624 34.5206 19.5572 34.3924 19.4218 34.2026C19.2864 34.0128 19.2319 33.777 19.2703 33.547C19.3088 33.3171 19.437 33.1118 19.6268 32.9764C19.8166 32.841 20.0524 32.7866 20.2823 32.825C20.9823 32.941 21.6713 33.009 22.3413 33.074C24.4073 33.274 26.3583 33.464 28.0953 34.974C28.2304 35.0916 28.3263 35.2475 28.3703 35.421C28.4143 35.5946 28.4042 35.7774 28.3415 35.9451C28.2787 36.1128 28.1663 36.2572 28.0192 36.3593C27.8721 36.4613 27.6974 36.516 27.5183 36.516Z" fill="#6B7280"/>
<path id="&#237;&#140;&#168;&#236;&#138;&#164; 268" d="M41.7971 58.708C39.2834 58.708 36.8261 57.9626 34.7361 56.566C32.646 55.1694 31.0171 53.1843 30.0553 50.8619C29.0934 48.5394 28.8419 45.9839 29.3326 43.5185C29.8232 41.0531 31.0339 38.7886 32.8116 37.0114C34.5893 35.2341 36.8541 34.0239 39.3196 33.5339C41.7851 33.0438 44.3405 33.2959 46.6627 34.2583C48.985 35.2207 50.9696 36.8501 52.3657 38.9405C53.7619 41.0308 54.5067 43.4883 54.5061 46.002C54.5024 49.3715 53.1623 52.602 50.7797 54.9846C48.3971 57.3672 45.1666 58.7073 41.7971 58.711M41.7971 35.051C39.6312 35.051 37.514 35.6933 35.7131 36.8966C33.9122 38.0999 32.5086 39.8102 31.6797 41.8113C30.8509 43.8123 30.634 46.0142 31.0566 48.1385C31.4791 50.2628 32.5221 52.214 34.0536 53.7456C35.5851 55.2771 37.5364 56.3201 39.6607 56.7426C41.785 57.1652 43.9869 56.9483 45.9879 56.1195C47.9889 55.2906 49.6993 53.887 50.9026 52.0861C52.1059 50.2852 52.7481 48.1679 52.7481 46.002C52.745 43.0986 51.5902 40.315 49.5372 38.262C47.4841 36.209 44.7006 35.0542 41.7971 35.051Z" fill="#6B7280"/>
<path id="&#237;&#140;&#168;&#236;&#138;&#164; 269" d="M37.3562 51.176C37.1824 51.176 37.0126 51.1244 36.8681 51.0279C36.7236 50.9314 36.6109 50.7942 36.5443 50.6337C36.4778 50.4731 36.4603 50.2965 36.4941 50.126C36.5279 49.9556 36.6114 49.799 36.7342 49.676L45.4722 40.938C45.6377 40.7765 45.8602 40.6867 46.0915 40.6881C46.3227 40.6895 46.5441 40.782 46.7076 40.9455C46.8711 41.1091 46.9636 41.3304 46.9651 41.5617C46.9665 41.7929 46.8767 42.0154 46.7152 42.181L37.9762 50.919C37.8947 51.0006 37.7979 51.0653 37.6913 51.1094C37.5848 51.1535 37.4705 51.1761 37.3552 51.176" fill="#6B7280"/>
<path id="&#237;&#140;&#168;&#236;&#138;&#164; 270" d="M46.2382 51.319C46.1229 51.3191 46.0087 51.2965 45.9021 51.2524C45.7955 51.2083 45.6987 51.1436 45.6172 51.062L36.7362 42.181C36.5747 42.0155 36.4849 41.793 36.4863 41.5617C36.4878 41.3305 36.5803 41.1091 36.7438 40.9456C36.9073 40.7821 37.1287 40.6895 37.3599 40.6881C37.5912 40.6867 37.8137 40.7765 37.9792 40.938L46.8602 49.819C46.9829 49.9419 47.0664 50.0984 47.1003 50.2688C47.1341 50.4391 47.1167 50.6157 47.0502 50.7762C46.9838 50.9367 46.8713 51.0739 46.727 51.1705C46.5826 51.2671 46.4129 51.3188 46.2392 51.319" fill="#6B7280"/>
</g>
</g>
</svg>
