<svg width="60" height="60" viewBox="0 0 60 60" fill="none" xmlns="http://www.w3.org/2000/svg">
<g id="Icon">
<g id="Group 3">
<path id="&#237;&#140;&#168;&#236;&#138;&#164; 96" d="M33.3904 58.7915C33.1591 58.7915 32.9373 58.6996 32.7738 58.5361C32.6102 58.3726 32.5184 58.1508 32.5184 57.9195V53.4505C32.5231 52.7961 32.6782 52.1515 32.9715 51.5665C33.2649 50.9815 33.6888 50.4717 34.2104 50.0765C34.2337 50.0592 34.2577 50.0428 34.2824 50.0275C35.5124 49.1475 41.7824 42.6975 45.7394 38.5375C45.7547 38.5215 45.7707 38.5058 45.7874 38.4905C46.0442 38.2574 46.23 37.9565 46.3234 37.6225C46.3365 37.5758 46.3536 37.5303 46.3744 37.4865L49.4744 30.9685C49.7273 30.4365 49.7584 29.8258 49.5611 29.2708C49.3637 28.7158 48.9539 28.2619 48.4219 28.009C47.8899 27.7561 47.2792 27.7249 46.7241 27.9223C46.1691 28.1197 45.7153 28.5295 45.4624 29.0615L43.1164 33.9955C42.8596 34.5334 42.4028 34.9497 41.8434 35.1555L37.7524 37.3685C37.6193 37.4403 37.4698 37.4762 37.3186 37.4728C37.1674 37.4694 37.0197 37.4267 36.89 37.3489C36.7603 37.2712 36.653 37.161 36.5788 37.0293C36.5045 36.8975 36.4658 36.7487 36.4664 36.5975L36.6114 8.9085C36.613 8.31982 36.3818 7.75438 35.9681 7.33551C35.5545 6.91663 34.992 6.6783 34.4034 6.6725H34.3914C33.8051 6.67484 33.2434 6.90794 32.8277 7.32136C32.412 7.73479 32.1759 8.29527 32.1704 8.8815L32.0704 26.6945C32.0677 27.0762 31.9144 27.4414 31.6437 27.7105C31.3731 27.9797 31.0071 28.131 30.6254 28.1315H30.6174C30.2341 28.1291 29.8675 27.9748 29.5979 27.7024C29.3283 27.43 29.1778 27.0617 29.1794 26.6785L29.2974 5.1835C29.2998 4.59478 29.0685 4.02915 28.6544 3.61072C28.2403 3.19228 27.6771 2.9552 27.0884 2.9515H27.0764C26.4896 2.95201 25.9268 3.18453 25.5107 3.59834C25.0946 4.01216 24.8591 4.5737 24.8554 5.1605L24.7374 26.6605C24.7353 27.0439 24.5809 27.4107 24.3083 27.6803C24.0358 27.9499 23.6672 28.1001 23.2839 28.098C22.9005 28.0959 22.5337 27.9415 22.2641 27.669C21.9945 27.3964 21.8443 27.0279 21.8464 26.6445L21.9464 8.9775C21.9469 8.38934 21.7151 7.82478 21.3014 7.40674C20.8876 6.9887 20.3255 6.75103 19.7374 6.7455H19.7254C19.1391 6.74574 18.5766 6.97759 18.1605 7.39057C17.7443 7.80355 17.5081 8.36422 17.5034 8.9505L17.4034 26.6175C17.4013 26.9993 17.2481 27.3648 16.9773 27.6341C16.7066 27.9034 16.3402 28.0545 15.9584 28.0545H15.9524H15.5924C15.4025 28.0536 15.2147 28.0153 15.0397 27.9417C14.8647 27.8682 14.7058 27.7609 14.5723 27.626C14.4388 27.491 14.3331 27.3311 14.2614 27.1553C14.1897 26.9795 14.1533 26.7913 14.1544 26.6015L14.2184 15.4635C14.2254 14.9943 14.0595 14.5389 13.7522 14.1842C13.4449 13.8295 13.0178 13.6004 12.5524 13.5405C12.2939 13.5129 12.0324 13.5403 11.7853 13.621C11.5381 13.7016 11.3108 13.8337 11.1184 14.0085C10.925 14.1815 10.7699 14.393 10.6629 14.6294C10.556 14.8659 10.4996 15.122 10.4974 15.3815L10.3464 44.2715C10.3354 46.4085 11.5384 49.4875 13.1654 50.4085C13.8023 50.7686 14.3317 51.292 14.699 51.9248C15.0664 52.5576 15.2584 53.2768 15.2554 54.0085V57.9195C15.2477 58.1455 15.1525 58.3597 14.9899 58.5169C14.8273 58.6741 14.61 58.762 14.3839 58.762C14.1577 58.762 13.9404 58.6741 13.7778 58.5169C13.6152 58.3597 13.52 58.1455 13.5124 57.9195V54.0085C13.5154 53.5864 13.4058 53.1711 13.1949 52.8055C12.984 52.4399 12.6793 52.1371 12.3124 51.9285C10.0034 50.6215 8.58937 46.9325 8.60337 44.2605L8.75437 15.3705C8.75846 14.868 8.8674 14.372 9.07422 13.914C9.28103 13.4561 9.58117 13.0464 9.95543 12.7111C10.3297 12.3758 10.7698 12.1223 11.2476 11.9669C11.7255 11.8115 12.2305 11.7575 12.7304 11.8085C13.4012 11.886 14.0371 12.1488 14.567 12.5674C15.0969 12.986 15.4997 13.5438 15.7304 14.1785L15.7594 8.9445C15.7662 7.89723 16.1867 6.89512 16.9292 6.15654C17.6718 5.41797 18.6761 5.00279 19.7234 5.0015H19.7444C20.4187 5.00475 21.081 5.17992 21.6688 5.51046C22.2566 5.841 22.7503 6.31598 23.1034 6.8905L23.1134 5.1515C23.1202 4.1044 23.5406 3.10244 24.2829 2.36389C25.0252 1.62535 26.0293 1.21006 27.0764 1.2085L27.0974 1.2085C28.148 1.21642 29.1526 1.64015 29.8916 2.38697C30.6305 3.13379 31.0436 4.14289 31.0404 5.1935L31.0314 6.7875C31.3879 6.21869 31.8831 5.74974 32.4704 5.42459C33.0578 5.09944 33.718 4.92874 34.3894 4.9285H34.4104C35.461 4.93642 36.4656 5.36015 37.2046 6.10697C37.9435 6.85379 38.3566 7.86289 38.3534 8.9135L38.2164 35.1355L41.0764 33.5895C41.1237 33.564 41.1732 33.5429 41.2244 33.5265C41.2935 33.5042 41.3573 33.468 41.412 33.4202C41.4666 33.3724 41.511 33.314 41.5424 33.2485L43.8884 28.3145C44.3527 27.3873 45.1618 26.679 46.1423 26.3414C47.1227 26.0039 48.1964 26.0639 49.1331 26.5087C50.0698 26.9535 50.7949 27.7477 51.153 28.7208C51.511 29.694 51.4735 30.7687 51.0484 31.7145L47.9794 38.1715C47.793 38.78 47.4478 39.3277 46.9794 39.7585C45.8694 40.9265 37.1504 50.0785 35.3104 51.4315L34.7914 51.9635C34.7629 51.9925 34.7325 52.0196 34.7004 52.0445C34.4141 52.4583 34.2603 52.9493 34.2594 53.4525V57.9175C34.2594 58.1488 34.1675 58.3706 34.004 58.5341C33.8404 58.6976 33.6186 58.7895 33.3874 58.7895" fill="#6B7280"/>
<path id="&#237;&#140;&#168;&#236;&#138;&#164; 97" d="M20.1403 44.0355C19.9971 44.0347 19.8562 43.9987 19.7303 43.9305C19.6043 43.8624 19.497 43.7643 19.4179 43.6449C19.3388 43.5255 19.2904 43.3885 19.2769 43.2459C19.2633 43.1033 19.2851 42.9596 19.3403 42.8275C22.2263 35.9215 33.3853 36.5085 35.2893 36.6615L36.9483 35.8235C37.1537 35.7271 37.3885 35.7147 37.603 35.7887C37.8174 35.8627 37.9946 36.0173 38.0968 36.2198C38.1991 36.4223 38.2185 36.6567 38.1508 36.8732C38.0831 37.0897 37.9337 37.2713 37.7343 37.3795L35.8523 38.3295C35.7034 38.4046 35.5362 38.4354 35.3703 38.4185C35.2533 38.4065 23.5413 37.2935 20.9483 43.4995C20.8823 43.6575 20.7713 43.7926 20.629 43.8879C20.4867 43.9832 20.3195 44.0345 20.1483 44.0355" fill="#6B7280"/>
</g>
</g>
</svg>
