<svg width="60" height="60" viewBox="0 0 60 60" fill="none" xmlns="http://www.w3.org/2000/svg">
<g id="Icon">
<g id="Group 9">
<path id="&#237;&#140;&#168;&#236;&#138;&#164; 271" d="M57.8377 11.795L54.4087 8.23096C54.22 8.03533 53.9613 7.92253 53.6895 7.91728C53.4177 7.91203 53.1549 8.01477 52.9587 8.20296C52.863 8.28539 52.7857 8.38704 52.7318 8.50131C52.678 8.61558 52.6488 8.73992 52.6461 8.86622C52.6435 8.99252 52.6674 9.11797 52.7165 9.23439C52.7655 9.35082 52.8385 9.45561 52.9307 9.54197L54.6887 11.257H48.0987V4.85697L49.9087 6.61496C50.005 6.7084 50.1187 6.78184 50.2435 6.83104C50.3682 6.88024 50.5015 6.90424 50.6356 6.90163C50.7697 6.89903 50.9019 6.86988 51.0246 6.81587C51.1474 6.76186 51.2582 6.68406 51.3507 6.58697C51.5384 6.39026 51.6405 6.12716 51.6345 5.85535C51.6285 5.58354 51.5149 5.3252 51.3187 5.13697L47.7517 1.70597C47.5553 1.51709 47.2919 1.41395 47.0194 1.4192C46.747 1.42445 46.4877 1.53767 46.2987 1.73397L43.0157 5.14997C42.8274 5.34615 42.7247 5.60908 42.7301 5.88097C42.7356 6.15285 42.8487 6.41146 43.0447 6.59997C43.2443 6.78865 43.5101 6.89134 43.7847 6.88592C44.0593 6.88049 44.3208 6.76738 44.5127 6.57096L46.0467 4.99197V11.257H39.6688L41.4267 9.54197C41.5198 9.45035 41.5933 9.34071 41.6425 9.21974C41.6918 9.09877 41.7158 8.96902 41.7132 8.83843C41.7106 8.70785 41.6814 8.57917 41.6273 8.46027C41.5732 8.34138 41.4954 8.23477 41.3987 8.14697C41.1988 7.96259 40.9339 7.86496 40.6622 7.87546C40.3904 7.88595 40.1339 8.00372 39.9488 8.20296L36.5197 11.781C36.331 11.9791 36.2282 12.2438 36.2336 12.5174C36.239 12.791 36.3523 13.0514 36.5487 13.242L39.9647 16.526C40.0618 16.6194 40.1762 16.6928 40.3016 16.7419C40.427 16.7911 40.5609 16.8151 40.6955 16.8125C40.8302 16.8099 40.963 16.7808 41.0864 16.7268C41.2099 16.6728 41.3214 16.5951 41.4148 16.498C41.6041 16.2802 41.7059 15.9999 41.7005 15.7114C41.6952 15.4229 41.583 15.1466 41.3857 14.936L39.8068 13.308H46.0478V19.737L44.5138 18.158C44.3711 18.0101 44.1876 17.9081 43.9867 17.865C43.7858 17.8219 43.5766 17.8396 43.3858 17.9159C43.195 17.9922 43.0313 18.1236 42.9155 18.2934C42.7997 18.4631 42.7371 18.6635 42.7357 18.869C42.7346 19.1335 42.8365 19.3881 43.0197 19.579L46.3007 22.995C46.394 23.0922 46.5055 23.1701 46.629 23.2241C46.7524 23.2781 46.8852 23.3073 47.0199 23.3099C47.1546 23.3125 47.2885 23.2885 47.4139 23.2393C47.5393 23.19 47.6538 23.1165 47.7508 23.023L51.3147 19.594C51.5104 19.4052 51.6232 19.1466 51.6284 18.8748C51.6337 18.6029 51.5309 18.3401 51.3427 18.144C51.2514 18.0464 51.1415 17.9681 51.0195 17.9138C50.8974 17.8594 50.7657 17.8301 50.6322 17.8275C50.4986 17.8249 50.3658 17.849 50.2418 17.8986C50.1177 17.9481 50.0048 18.0221 49.9098 18.116L48.0998 19.874V13.309H54.5528L52.9737 14.937C52.7769 15.1365 52.6642 15.404 52.6588 15.6842C52.6534 15.9644 52.7558 16.236 52.9448 16.443C53.0391 16.5465 53.1531 16.6301 53.2802 16.689C53.4072 16.7479 53.5448 16.7809 53.6847 16.786C53.9482 16.7917 54.2034 16.6941 54.3957 16.514L57.8117 13.238C57.9089 13.1453 57.9867 13.0343 58.0408 12.9114C58.0948 12.7884 58.124 12.656 58.1266 12.5218C58.1292 12.3876 58.1052 12.2541 58.0559 12.1292C58.0067 12.0043 57.9332 11.8903 57.8397 11.794" fill="#6B7280"/>
<path id="&#237;&#140;&#168;&#236;&#138;&#164; 272" d="M27.9928 31.4789C27.7597 31.4789 27.5361 31.3863 27.3713 31.2215C27.2064 31.0567 27.1138 30.8331 27.1138 30.5999V22.5509C27.1138 22.2607 27.0566 21.9733 26.9456 21.7052C26.8345 21.4371 26.6717 21.1935 26.4665 20.9882C26.2613 20.783 26.0177 20.6202 25.7495 20.5092C25.4814 20.3981 25.194 20.3409 24.9038 20.3409C24.6136 20.3409 24.3262 20.3981 24.0581 20.5092C23.7899 20.6202 23.5463 20.783 23.3411 20.9882C23.1359 21.1935 22.9731 21.4371 22.862 21.7052C22.751 21.9733 22.6938 22.2607 22.6938 22.5509V30.5999C22.6938 30.8331 22.6012 31.0567 22.4364 31.2215C22.2715 31.3863 22.0479 31.4789 21.8148 31.4789C21.5817 31.4789 21.3581 31.3863 21.1932 31.2215C21.0284 31.0567 20.9358 30.8331 20.9358 30.5999V22.5509C20.9274 22.0246 21.0239 21.5019 21.2195 21.0132C21.4152 20.5245 21.7061 20.0797 22.0753 19.7045C22.4446 19.3294 22.8848 19.0314 23.3703 18.8281C23.8558 18.6247 24.3769 18.52 24.9033 18.52C25.4297 18.52 25.9508 18.6247 26.4363 18.8281C26.9218 19.0314 27.362 19.3294 27.7313 19.7045C28.1005 20.0797 28.3914 20.5245 28.5871 21.0132C28.7827 21.5019 28.8792 22.0246 28.8708 22.5509V30.5999C28.8708 30.8331 28.7782 31.0567 28.6134 31.2215C28.4485 31.3863 28.2249 31.4789 27.9918 31.4789" fill="#6B7280"/>
<path id="&#237;&#140;&#168;&#236;&#138;&#164; 273" d="M21.6939 31.479C21.4607 31.479 21.2372 31.3864 21.0723 31.2215C20.9075 31.0567 20.8149 30.8331 20.8149 30.6V20.568C20.8149 19.9818 20.582 19.4197 20.1676 19.0053C19.7531 18.5908 19.191 18.358 18.6049 18.358C18.0187 18.358 17.4566 18.5908 17.0421 19.0053C16.6277 19.4197 16.3949 19.9818 16.3949 20.568V30.601C16.3949 30.8341 16.3022 31.0577 16.1374 31.2225C15.9726 31.3874 15.749 31.48 15.5159 31.48C15.2827 31.48 15.0592 31.3874 14.8943 31.2225C14.7295 31.0577 14.6369 30.8341 14.6369 30.601V20.568C14.6285 20.0417 14.7249 19.5189 14.9206 19.0303C15.1162 18.5416 15.4071 18.0967 15.7764 17.7215C16.1456 17.3464 16.5858 17.0485 17.0713 16.8451C17.5568 16.6417 18.078 16.537 18.6044 16.537C19.1307 16.537 19.6519 16.6417 20.1374 16.8451C20.6229 17.0485 21.0631 17.3464 21.4323 17.7215C21.8016 18.0967 22.0925 18.5416 22.2881 19.0303C22.4838 19.5189 22.5802 20.0417 22.5719 20.568V30.601C22.5719 30.8341 22.4792 31.0577 22.3144 31.2225C22.1496 31.3874 21.926 31.48 21.6929 31.48" fill="#6B7280"/>
<path id="&#237;&#140;&#168;&#236;&#138;&#164; 274" d="M9.21885 35.619C8.98573 35.619 8.76215 35.5264 8.59731 35.3615C8.43246 35.1967 8.33986 34.9731 8.33986 34.74V22.552C8.3315 22.0257 8.42795 21.5029 8.62358 21.0143C8.81922 20.5256 9.11013 20.0807 9.47937 19.7056C9.84862 19.3304 10.2888 19.0325 10.7743 18.8291C11.2598 18.6257 11.781 18.521 12.3074 18.521C12.8337 18.521 13.3549 18.6257 13.8404 18.8291C14.3259 19.0325 14.7661 19.3304 15.1353 19.7056C15.5046 20.0807 15.7955 20.5256 15.9911 21.0143C16.1868 21.5029 16.2832 22.0257 16.2749 22.552V30.601C16.2749 30.8341 16.1822 31.0577 16.0174 31.2225C15.8526 31.3874 15.629 31.48 15.3959 31.48C15.1627 31.48 14.9392 31.3874 14.7743 31.2225C14.6095 31.0577 14.5169 30.8341 14.5169 30.601V22.552C14.5169 21.9659 14.284 21.4037 13.8696 20.9893C13.4551 20.5748 12.893 20.342 12.3069 20.342C11.7207 20.342 11.1586 20.5748 10.7441 20.9893C10.3297 21.4037 10.0969 21.9659 10.0969 22.552V34.74C10.0969 34.9731 10.0042 35.1967 9.8394 35.3615C9.67456 35.5264 9.45198 35.619 9.21885 35.619Z" fill="#6B7280"/>
<path id="&#237;&#140;&#168;&#236;&#138;&#164; 275" d="M11.6568 58.576C11.4237 58.576 11.2001 58.4834 11.0353 58.3185C10.8704 58.1537 10.7778 57.9301 10.7778 57.697V53.197C10.6974 51.5287 9.98185 49.9545 8.77781 48.797C7.20081 47.282 2.77381 38.851 2.11381 37.174C1.87735 36.5728 1.81362 35.9175 1.92981 35.282L3.19081 28.369C3.29932 27.7736 3.5352 27.2088 3.88229 26.7131C4.22939 26.2174 4.6795 25.8026 5.20181 25.497L8.32681 23.669C8.52775 23.5555 8.76527 23.5255 8.98809 23.5856C9.21091 23.6457 9.40115 23.7911 9.51773 23.9902C9.63432 24.1894 9.6679 24.4265 9.61123 24.6502C9.55455 24.8739 9.41216 25.0663 9.21481 25.186L6.08981 27.014C5.78584 27.1914 5.52388 27.4326 5.32192 27.7208C5.11996 28.0091 4.98278 28.3377 4.91981 28.684L3.65881 35.597C3.60146 35.9099 3.63263 36.2327 3.74881 36.529C4.03081 37.248 5.21481 39.615 6.63681 42.187C7.57807 44.0743 8.70247 45.8645 9.99381 47.532C11.5288 49.0054 12.4385 51.0125 12.5348 53.138C12.5348 53.152 12.5348 53.166 12.5348 53.179V57.698C12.5348 57.9311 12.4422 58.1547 12.2774 58.3195C12.1125 58.4844 11.8889 58.577 11.6558 58.577" fill="#6B7280"/>
<path id="&#237;&#140;&#168;&#236;&#138;&#164; 276" d="M28.7329 58.577C28.4997 58.577 28.2762 58.4844 28.1113 58.3195C27.9465 58.1547 27.8539 57.9311 27.8539 57.698V53.169C27.8527 51.5246 28.34 49.917 29.2539 48.55L31.2679 45.529C32.4938 43.6938 33.147 41.5359 33.1449 39.329L33.2929 24.005C33.2917 23.4189 33.0577 22.8572 32.6424 22.4436C32.2271 22.03 31.6645 21.7983 31.0784 21.7995C30.4922 21.8007 29.9306 22.0347 29.517 22.45C29.1034 22.8653 28.8717 23.4279 28.8729 24.014V30.602C28.8729 30.8351 28.7803 31.0587 28.6154 31.2235C28.4506 31.3884 28.227 31.481 27.9939 31.481C27.7607 31.481 27.5372 31.3884 27.3723 31.2235C27.2075 31.0587 27.1149 30.8351 27.1149 30.602V24.015C27.1314 22.9736 27.5567 21.9806 28.2989 21.25C29.0412 20.5194 30.0409 20.11 31.0824 20.11C32.1238 20.11 33.1235 20.5194 33.8658 21.25C34.6081 21.9806 35.0333 22.9736 35.0499 24.015L34.9019 39.339C34.9034 41.8886 34.1485 44.3815 32.7329 46.502L30.7189 49.523C29.9994 50.6019 29.6166 51.8702 29.6189 53.167V57.702C29.6189 57.9351 29.5262 58.1587 29.3614 58.3235C29.1966 58.4884 28.973 58.581 28.7399 58.581" fill="#6B7280"/>
<path id="&#237;&#140;&#168;&#236;&#138;&#164; 277" d="M7.06884 34.689C6.90636 34.6888 6.74711 34.6436 6.60877 34.5584C6.47043 34.4731 6.35842 34.3512 6.28517 34.2062C6.21193 34.0612 6.18032 33.8987 6.19385 33.7368C6.20739 33.5748 6.26554 33.4198 6.36184 33.289L8.39084 30.536C8.53036 30.3516 8.7369 30.2296 8.96572 30.1965C9.19454 30.1633 9.42721 30.2216 9.61332 30.3588C9.79943 30.496 9.924 30.701 9.96003 30.9294C9.99607 31.1578 9.94067 31.3911 9.80584 31.579L7.77684 34.332C7.69527 34.4431 7.58865 34.5334 7.46564 34.5956C7.34263 34.6578 7.20669 34.6901 7.06884 34.69" fill="#6B7280"/>
</g>
</g>
</svg>
