<svg width="61" height="60" viewBox="0 0 61 60" fill="none" xmlns="http://www.w3.org/2000/svg">
<g id="Icon">
<g id="&#234;&#183;&#184;&#235;&#163;&#185; 214">
<g id="Clip path group">
<mask id="mask0_6_574" style="mask-type:luminance" maskUnits="userSpaceOnUse" x="16" y="3" width="29" height="54">
<g id="clip-path">
<path id="&#236;&#130;&#172;&#234;&#176;&#129;&#237;&#152;&#149; 63" d="M44.6019 3.638H16.3979V56.362H44.6019V3.638Z" fill="white"/>
</g>
</mask>
<g mask="url(#mask0_6_574)">
<g id="&#234;&#183;&#184;&#235;&#163;&#185; 213">
<path id="&#237;&#140;&#168;&#236;&#138;&#164; 154" d="M38.7769 34.667C38.5844 34.667 38.3997 34.5905 38.2636 34.4543C38.1274 34.3182 38.0509 34.1335 38.0509 33.941V27.297C38.0509 26.8131 37.8587 26.349 37.5166 26.0069C37.1744 25.6647 36.7103 25.4725 36.2264 25.4725C35.7425 25.4725 35.2785 25.6647 34.9363 26.0069C34.5942 26.349 34.4019 26.8131 34.4019 27.297V33.942C34.395 34.1297 34.3155 34.3075 34.1802 34.4378C34.0449 34.5682 33.8643 34.6411 33.6764 34.6411C33.4886 34.6411 33.308 34.5682 33.1727 34.4378C33.0374 34.3075 32.9579 34.1297 32.9509 33.942V27.297C32.9433 26.862 33.0224 26.4299 33.1836 26.0258C33.3448 25.6218 33.5849 25.2539 33.8898 24.9436C34.1947 24.6333 34.5584 24.3869 34.9596 24.2186C35.3607 24.0504 35.7914 23.9637 36.2264 23.9637C36.6615 23.9637 37.0921 24.0504 37.4933 24.2186C37.8945 24.3869 38.2581 24.6333 38.5631 24.9436C38.868 25.2539 39.108 25.6218 39.2692 26.0258C39.4304 26.4299 39.5095 26.862 39.5019 27.297V33.942C39.5019 34.1345 39.4254 34.3192 39.2893 34.4553C39.1531 34.5915 38.9685 34.668 38.7759 34.668" fill="#6B7280"/>
<path id="&#237;&#140;&#168;&#236;&#138;&#164; 155" d="M33.573 34.667C33.3804 34.667 33.1957 34.5905 33.0596 34.4544C32.9234 34.3182 32.847 34.1336 32.847 33.941V25.293C32.847 24.8091 32.6547 24.345 32.3126 24.0029C31.9704 23.6607 31.5063 23.4685 31.0225 23.4685C30.5386 23.4685 30.0745 23.6607 29.7323 24.0029C29.3902 24.345 29.198 24.8091 29.198 25.293V33.941C29.191 34.1288 29.1115 34.3065 28.9762 34.4369C28.8409 34.5672 28.6603 34.6401 28.4725 34.6401C28.2846 34.6401 28.104 34.5672 27.9687 34.4369C27.8334 34.3065 27.7539 34.1288 27.747 33.941V25.293C27.7394 24.858 27.8185 24.4259 27.9797 24.0219C28.1409 23.6178 28.3809 23.2499 28.6858 22.9396C28.9907 22.6293 29.3544 22.3829 29.7556 22.2146C30.1568 22.0464 30.5874 21.9598 31.0225 21.9598C31.4575 21.9598 31.8882 22.0464 32.2893 22.2146C32.6905 22.3829 33.0542 22.6293 33.3591 22.9396C33.664 23.2499 33.9041 23.6178 34.0653 24.0219C34.2265 24.4259 34.3056 24.858 34.298 25.293V33.941C34.298 34.1336 34.2215 34.3182 34.0853 34.4544C33.9492 34.5905 33.7655 34.667 33.573 34.667Z" fill="#6B7280"/>
<path id="&#237;&#140;&#168;&#236;&#138;&#164; 156" d="M23.277 38.084C23.0845 38.084 22.8998 38.0075 22.7637 37.8713C22.6275 37.7352 22.551 37.5505 22.551 37.358V11.99C22.5434 11.555 22.6225 11.1229 22.7837 10.7188C22.9449 10.3148 23.185 9.94687 23.4899 9.63658C23.7948 9.3263 24.1585 9.07985 24.5597 8.91161C24.9608 8.74338 25.3915 8.65674 25.8265 8.65674C26.2616 8.65674 26.6922 8.74338 27.0934 8.91161C27.4946 9.07985 27.8583 9.3263 28.1632 9.63658C28.4681 9.94687 28.7081 10.3148 28.8693 10.7188C29.0305 11.1229 29.1096 11.555 29.102 11.99V33.94C29.0951 34.1277 29.0156 34.3055 28.8803 34.4358C28.745 34.5662 28.5644 34.639 28.3765 34.639C28.1887 34.639 28.0081 34.5662 27.8728 34.4358C27.7375 34.3055 27.658 34.1277 27.651 33.94V11.99C27.651 11.5061 27.4588 11.042 27.1167 10.6999C26.7745 10.3577 26.3104 10.1655 25.8265 10.1655C25.3427 10.1655 24.8786 10.3577 24.5364 10.6999C24.1943 11.042 24.002 11.5061 24.002 11.99V37.358C24.002 37.5505 23.9255 37.7352 23.7894 37.8713C23.6532 38.0075 23.4696 38.084 23.277 38.084Z" fill="#6B7280"/>
<path id="&#237;&#140;&#168;&#236;&#138;&#164; 157" d="M25.29 56.361C25.0975 56.361 24.9128 56.2845 24.7767 56.1483C24.6405 56.0122 24.564 55.8275 24.564 55.635V52.599C24.4972 51.2208 23.9054 49.9205 22.91 48.965C21.61 47.714 17.953 40.752 17.41 39.365C17.2173 38.8697 17.1664 38.3306 17.263 37.808L18.304 32.101C18.3933 31.6095 18.5877 31.1432 18.8741 30.7339C19.1604 30.3247 19.5319 29.9822 19.963 29.73L22.543 28.221C22.6254 28.1703 22.717 28.1367 22.8126 28.1219C22.9081 28.1072 23.0056 28.1117 23.0994 28.1352C23.1932 28.1586 23.2814 28.2006 23.3587 28.2586C23.4361 28.3166 23.501 28.3894 23.5499 28.4729C23.5987 28.5563 23.6303 28.6487 23.643 28.7445C23.6556 28.8404 23.649 28.9378 23.6235 29.031C23.598 29.1243 23.5541 29.2115 23.4944 29.2875C23.4348 29.3636 23.3605 29.427 23.276 29.474L20.696 30.983C20.4451 31.1296 20.2288 31.3287 20.0621 31.5667C19.8953 31.8048 19.7821 32.0761 19.73 32.362L18.689 38.069C18.6419 38.3273 18.6679 38.5936 18.764 38.838C18.997 39.431 19.975 41.386 21.148 43.509C21.9251 45.0664 22.8532 46.5439 23.919 47.92C25.1869 49.1361 25.9388 50.793 26.019 52.548C26.019 52.559 26.019 52.571 26.019 52.582V55.636C26.019 55.7313 26.0002 55.8257 25.9638 55.9138C25.9273 56.0019 25.8738 56.0819 25.8064 56.1493C25.739 56.2167 25.6589 56.2702 25.5709 56.3067C25.4828 56.3432 25.3884 56.362 25.293 56.362" fill="#6B7280"/>
<path id="&#237;&#140;&#168;&#236;&#138;&#164; 158" d="M39.387 56.361C39.1945 56.361 39.0098 56.2845 38.8737 56.1484C38.7375 56.0122 38.661 55.8276 38.661 55.635V52.573C38.6599 51.2157 39.0619 49.8886 39.816 48.76L41.479 46.265C42.4912 44.7498 43.0307 42.9682 43.029 41.146L43.151 28.494C43.1501 28.0101 42.957 27.5464 42.6142 27.2049C42.2713 26.8634 41.8069 26.6721 41.323 26.673C40.8391 26.6739 40.3754 26.8671 40.0339 27.2099C39.6924 27.5527 39.5011 28.0171 39.502 28.501V33.94C39.4951 34.1278 39.4156 34.3055 39.2803 34.4359C39.145 34.5662 38.9644 34.6391 38.7765 34.6391C38.5886 34.6391 38.4081 34.5662 38.2728 34.4359C38.1375 34.3055 38.058 34.1278 38.051 33.94V28.505C38.066 27.6462 38.4177 26.8277 39.0304 26.2256C39.643 25.6236 40.4676 25.2863 41.3265 25.2863C42.1855 25.2863 43.01 25.6236 43.6227 26.2256C44.2353 26.8277 44.587 27.6462 44.602 28.505L44.48 41.157C44.481 43.2635 43.8566 45.3228 42.686 47.074L41.023 49.569C40.4282 50.4593 40.1111 51.5063 40.112 52.577V55.639C40.112 55.8316 40.0355 56.0162 39.8994 56.1524C39.7632 56.2885 39.5786 56.365 39.386 56.365" fill="#6B7280"/>
<path id="&#237;&#140;&#168;&#236;&#138;&#164; 160" d="M19.604 19.468C19.4429 19.4682 19.2836 19.4343 19.1365 19.3684C18.9895 19.3026 18.8581 19.2063 18.751 19.086C17.5738 17.7654 16.7988 16.1357 16.5176 14.389C16.2364 12.6424 16.4606 10.8518 17.1638 9.22844C17.867 7.60509 19.0199 6.21675 20.4864 5.22721C21.9529 4.23768 23.6718 3.68825 25.4404 3.64374C27.2089 3.59924 28.9533 4.06152 30.4677 4.97604C31.9821 5.89056 33.2034 7.21916 33.9873 8.80509C34.7713 10.391 35.0853 12.1681 34.8923 13.9267C34.6993 15.6852 34.0073 17.3519 32.898 18.73C32.7057 18.9597 32.431 19.1047 32.1328 19.1339C31.8347 19.163 31.5371 19.074 31.3039 18.886C31.0708 18.6979 30.9208 18.4258 30.8862 18.1283C30.8516 17.8307 30.9352 17.5315 31.119 17.295C32.1247 16.0563 32.6706 14.5076 32.664 12.912C32.6644 11.7794 32.3896 10.6636 31.8631 9.66078C31.3366 8.65796 30.5742 7.79816 29.6416 7.1554C28.709 6.51265 27.6342 6.10621 26.5096 5.97109C25.3851 5.83597 24.2445 5.97623 23.1862 6.37977C22.1279 6.78331 21.1836 7.43805 20.4345 8.2876C19.6854 9.13715 19.1541 10.156 18.8862 11.2565C18.6183 12.357 18.622 13.5062 18.8969 14.6049C19.1717 15.7037 19.7095 16.7192 20.464 17.564C20.6095 17.7286 20.7045 17.9317 20.7376 18.1489C20.7706 18.3661 20.7404 18.5882 20.6505 18.7887C20.5606 18.9892 20.4149 19.1595 20.2307 19.2792C20.0465 19.399 19.8317 19.4632 19.612 19.464" fill="#6B7280"/>
</g>
</g>
</g>
</g>
</g>
</svg>
