<svg width="61" height="60" viewBox="0 0 61 60" fill="none" xmlns="http://www.w3.org/2000/svg">
<g id="Icon">
<g id="Group 6">
<path id="&#237;&#140;&#168;&#236;&#138;&#164; 177" d="M37.3733 58.3411H37.3393C37.1142 58.3323 36.9018 58.2344 36.7488 58.069C36.5958 57.9036 36.5147 57.6843 36.5233 57.4591C36.5305 56.2709 36.7391 55.0925 37.1403 53.9741C37.5953 52.7832 38.4092 51.7632 39.4693 51.0551C39.8627 50.7986 40.2689 50.5623 40.6863 50.3471C41.2533 50.0782 41.786 49.7424 42.2733 49.3471L47.4113 43.5681L51.9533 38.1291C52.3485 37.6536 52.5388 37.0408 52.4826 36.4251C52.4263 35.8094 52.1281 35.2412 51.6533 34.8451L51.5363 34.7451C51.0608 34.35 50.448 34.1597 49.8323 34.2159C49.2166 34.2721 48.6484 34.5704 48.2523 35.0451L44.1003 39.9921C44.0304 40.083 43.9427 40.1588 43.8427 40.2149C43.7426 40.271 43.6323 40.3063 43.5183 40.3187C43.4042 40.331 43.2889 40.3202 43.1791 40.2867C43.0694 40.2533 42.9676 40.198 42.8798 40.1242C42.792 40.0504 42.72 39.9596 42.6683 39.8572C42.6165 39.7549 42.586 39.6431 42.5786 39.5286C42.5712 39.4142 42.587 39.2994 42.6251 39.1912C42.6632 39.083 42.7228 38.9837 42.8003 38.8991L46.9513 33.9541C47.6375 33.1353 48.6203 32.622 49.6843 32.5268C50.7483 32.4316 51.8067 32.7622 52.6273 33.4461L52.7443 33.5461C53.5637 34.232 54.0776 35.2149 54.1732 36.2792C54.2688 37.3434 53.9384 38.4022 53.2543 39.2231L48.7043 44.6721L48.6874 44.6921L43.5283 50.4921L43.5053 50.5171C42.901 51.0551 42.2223 51.5034 41.4903 51.8481C41.0853 52.0661 40.7023 52.2731 40.4283 52.4611C38.7143 53.6371 38.3063 55.3391 38.2193 57.5311C38.2106 57.7503 38.1174 57.9575 37.9594 58.1096C37.8013 58.2617 37.5907 58.3468 37.3713 58.3471" fill="#6B7280"/>
<path id="&#237;&#140;&#168;&#236;&#138;&#164; 178" d="M43.4534 40.288C43.291 40.2885 43.1318 40.2425 42.9947 40.1554C42.8575 40.0683 42.7483 39.9437 42.6798 39.7964C42.6113 39.6491 42.5864 39.4852 42.6082 39.3242C42.6299 39.1632 42.6973 39.0118 42.8024 38.888L47.9414 32.76C48.3363 32.2845 48.5264 31.6719 48.4702 31.0565C48.4139 30.441 48.1159 29.873 47.6414 29.477L47.5244 29.377C47.0492 28.9813 46.4362 28.7907 45.8203 28.8469C45.2045 28.9032 44.6362 29.2018 44.2404 29.677L39.1004 35.806C39.0309 35.8979 38.9434 35.9748 38.8432 36.0318C38.743 36.0889 38.6323 36.1249 38.5178 36.1379C38.4032 36.1508 38.2872 36.1403 38.1769 36.1069C38.0665 36.0736 37.9641 36.0182 37.8758 35.9441C37.7875 35.8699 37.7153 35.7786 37.6634 35.6756C37.6115 35.5727 37.5812 35.4603 37.5741 35.3452C37.5671 35.2301 37.5835 35.1148 37.6224 35.0063C37.6613 34.8978 37.7219 34.7984 37.8004 34.714L42.9394 28.586C43.6248 27.7661 44.6077 27.2519 45.6721 27.1565C46.7364 27.0611 47.7951 27.3921 48.6154 28.077L48.7324 28.177C49.5518 28.8629 50.0657 29.8458 50.1613 30.91C50.2569 31.9743 49.9265 33.033 49.2424 33.854L44.1024 39.983C44.0223 40.0776 43.9224 40.1535 43.8097 40.2054C43.6971 40.2572 43.5744 40.2837 43.4504 40.283" fill="#6B7280"/>
<path id="&#237;&#140;&#168;&#236;&#138;&#164; 179" d="M38.3554 36.03C38.1929 36.0305 38.0337 35.9845 37.8966 35.8974C37.7595 35.8102 37.6502 35.6857 37.5817 35.5383C37.5132 35.391 37.4883 35.2272 37.5101 35.0662C37.5318 34.9052 37.5993 34.7538 37.7044 34.6299L42.8434 28.502C43.2387 28.0269 43.4291 27.4143 43.3728 26.7988C43.3166 26.1834 43.0182 25.6155 42.5434 25.2199L42.4264 25.12C41.9509 24.7248 41.338 24.5345 40.7223 24.5907C40.1066 24.647 39.5384 24.9452 39.1424 25.42C38.993 25.5748 38.7905 25.6673 38.5756 25.6788C38.3608 25.6902 38.1496 25.6197 37.9846 25.4816C37.8197 25.3434 37.7133 25.1478 37.6869 24.9343C37.6605 24.7207 37.7161 24.5051 37.8424 24.331C38.1817 23.9246 38.5977 23.5891 39.0667 23.3436C39.5357 23.0981 40.0485 22.9473 40.5758 22.9C41.103 22.8526 41.6344 22.9096 42.1397 23.0676C42.6449 23.2256 43.1141 23.4816 43.5204 23.821L43.6374 23.9209C44.4577 24.6062 44.9722 25.5892 45.0679 26.6538C45.1635 27.7184 44.8324 28.7774 44.1474 29.5979L39.0074 35.728C38.9272 35.8226 38.8273 35.8985 38.7147 35.9503C38.602 36.0022 38.4794 36.0287 38.3554 36.028" fill="#6B7280"/>
<path id="&#237;&#140;&#168;&#236;&#138;&#164; 180" d="M19.9984 58.341H19.9744C19.7493 58.3344 19.536 58.2388 19.3813 58.0751C19.2266 57.9115 19.1432 57.6931 19.1494 57.468C19.1494 57.395 19.3494 50.168 19.0254 47.375C18.7219 46.1598 18.2807 44.9831 17.7104 43.868C17.0453 42.506 16.5041 41.087 16.0934 39.628C15.8594 38.609 15.3744 33.103 15.3124 32.389C15.2834 32.165 15.2604 31.945 15.2364 31.712C15.0554 29.953 14.8494 27.959 11.8194 24.069L7.19741 18.608C7.17847 18.5856 7.16078 18.5623 7.14441 18.538C6.99979 18.3266 6.89912 18.0883 6.8484 17.8373C6.79768 17.5863 6.79793 17.3276 6.84914 17.0767C6.90036 16.8258 7.00148 16.5877 7.14652 16.3766C7.29155 16.1655 7.47753 15.9858 7.69341 15.848C9.11744 14.8256 10.8715 14.3709 12.6129 14.5726C14.3542 14.7744 15.9579 15.6181 17.1104 16.939L17.1374 16.971C17.3254 17.202 21.7554 22.655 22.7374 24.071C23.7014 25.463 24.6774 26.211 25.6374 26.295C26.5734 26.375 27.6264 25.834 28.7674 24.685L45.2304 5.29997C45.9244 4.39314 46.9488 3.79743 48.0802 3.6427C49.2117 3.48798 50.3584 3.78678 51.2704 4.47397C52.1223 5.2547 52.6362 6.33687 52.7029 7.49051C52.7696 8.64415 52.3837 9.77831 51.6274 10.652L34.1844 31.252C34.1122 31.3373 34.0238 31.4076 33.9245 31.4588C33.8251 31.5101 33.7165 31.5412 33.6051 31.5505C33.4937 31.5598 33.3815 31.547 33.275 31.513C33.1685 31.4789 33.0698 31.4242 32.9844 31.352C32.899 31.2797 32.8288 31.1914 32.7775 31.092C32.7263 30.9926 32.6952 30.8841 32.6859 30.7727C32.6766 30.6612 32.6893 30.5491 32.7234 30.4426C32.7575 30.3361 32.8122 30.2373 32.8844 30.152L50.3234 9.55197C50.7944 9.02625 51.0427 8.338 51.0156 7.63264C50.9885 6.92728 50.6883 6.26007 50.1784 5.77197C49.6107 5.37446 48.9093 5.21635 48.2259 5.3318C47.5425 5.44726 46.932 5.82701 46.5264 6.38897L30.0334 25.8C30.0194 25.816 30.0054 25.831 29.9904 25.846C28.4694 27.388 26.9524 28.105 25.4824 27.978C23.9934 27.849 22.5964 26.857 21.3304 25.029C20.4154 23.708 16.1024 18.394 15.8304 18.055C14.9449 17.0415 13.7101 16.399 12.372 16.2554C11.0339 16.1117 9.69081 16.4776 8.61041 17.28C8.56614 17.3084 8.53398 17.3523 8.52013 17.4031C8.50628 17.4539 8.51172 17.508 8.53541 17.555L13.1354 22.983L13.1574 23.01C16.4984 27.294 16.7404 29.647 16.9354 31.537C16.9584 31.765 16.9804 31.979 17.0084 32.188C17.0084 32.2 17.0084 32.212 17.0084 32.224C17.2214 34.669 17.5954 38.557 17.7544 39.248C18.1436 40.5983 18.6495 41.9123 19.2664 43.175C19.9189 44.4406 20.4056 45.785 20.7144 47.175C21.0524 50.085 20.8574 57.21 20.8484 57.512C20.8422 57.7331 20.75 57.943 20.5915 58.0972C20.433 58.2514 20.2206 58.3378 19.9994 58.338" fill="#6B7280"/>
<path id="&#237;&#140;&#168;&#236;&#138;&#164; 181" d="M16.4325 11.8539L22.9615 9.87492L20.0305 8.23492C19.8747 8.14766 19.7377 8.03057 19.6272 7.89035C19.5167 7.75013 19.4349 7.58951 19.3865 7.41768C19.3381 7.24584 19.324 7.06615 19.345 6.88886C19.366 6.71158 19.4217 6.54017 19.509 6.38442C19.5963 6.22867 19.7133 6.09164 19.8536 5.98114C19.9938 5.87064 20.1544 5.78885 20.3262 5.74042C20.4981 5.69199 20.6778 5.67789 20.855 5.69891C21.0323 5.71993 21.2037 5.77566 21.3595 5.86292L27.0785 9.06292C27.235 9.15001 27.3728 9.26718 27.4838 9.40769C27.5949 9.5482 27.6771 9.70928 27.7257 9.88167C27.7743 10.0541 27.7884 10.2344 27.767 10.4122C27.7457 10.59 27.6895 10.7619 27.6015 10.9179L24.5285 16.3939C24.4411 16.5496 24.3239 16.6865 24.1836 16.7969C24.0433 16.9073 23.8826 16.989 23.7107 17.0373C23.5388 17.0856 23.3591 17.0995 23.1818 17.0784C23.0045 17.0572 22.8332 17.0013 22.6775 16.9139C22.5218 16.8265 22.3849 16.7093 22.2745 16.569C22.1641 16.4287 22.0824 16.268 22.0341 16.0961C21.9858 15.9242 21.9719 15.7445 21.9931 15.5673C22.0142 15.39 22.0701 15.2186 22.1575 15.0629L23.5775 12.5319L17.2225 14.4559C16.8814 14.5483 16.5177 14.5041 16.2086 14.3328C15.8995 14.1615 15.6692 13.8765 15.5667 13.5383C15.4642 13.2001 15.4975 12.8353 15.6595 12.5212C15.8215 12.2071 16.0995 11.9685 16.4345 11.8559" fill="#6B7280"/>
<path id="&#237;&#140;&#168;&#236;&#138;&#164; 182" d="M40.0713 4.69704L33.5393 6.67304L35.0673 3.68104C35.1575 3.5215 35.2145 3.34536 35.2349 3.16321C35.2553 2.98106 35.2386 2.79667 35.1859 2.62113C35.1332 2.4456 35.0455 2.28254 34.9281 2.14177C34.8107 2.001 34.6661 1.88542 34.5029 1.802C34.3397 1.71858 34.1613 1.66903 33.9785 1.65634C33.7956 1.64365 33.6121 1.66807 33.4389 1.72814C33.2658 1.78821 33.1066 1.88269 32.9709 2.00589C32.8352 2.12909 32.7258 2.27847 32.6493 2.44504L29.6683 8.28204C29.5871 8.44106 29.538 8.61452 29.5238 8.79252C29.5096 8.97052 29.5307 9.14957 29.5858 9.31943C29.6409 9.48929 29.7289 9.64663 29.8448 9.78246C29.9607 9.91829 30.1022 10.0299 30.2613 10.111L35.8553 12.963C36.1765 13.1268 36.5496 13.1563 36.8925 13.045C37.2354 12.9337 37.52 12.6907 37.6838 12.3695C37.8476 12.0484 37.8771 11.6753 37.7658 11.3324C37.6545 10.9895 37.4115 10.7048 37.0903 10.541L34.5053 9.22304L40.8603 7.29904C41.1953 7.18649 41.4733 6.94786 41.6353 6.63377C41.7973 6.31968 41.8306 5.95484 41.7281 5.61663C41.6256 5.27841 41.3953 4.99343 41.0862 4.82213C40.7771 4.65083 40.4134 4.60667 40.0723 4.69904" fill="#6B7280"/>
</g>
</g>
</svg>
