<svg width="61" height="60" viewBox="0 0 61 60" fill="none" xmlns="http://www.w3.org/2000/svg">
<g id="Icon">
<g id="&#234;&#183;&#184;&#235;&#163;&#185; 181">
<path id="&#237;&#140;&#168;&#236;&#138;&#164; 109" d="M50.593 58.1534H42.183C40.9041 58.1534 39.6776 57.6454 38.7733 56.7411C37.869 55.8368 37.361 54.6103 37.361 53.3314C37.361 52.0525 37.869 50.8261 38.7733 49.9218C39.6776 49.0175 40.9041 48.5094 42.183 48.5094H50.593C51.8718 48.5094 53.0983 49.0175 54.0026 49.9218C54.9069 50.8261 55.415 52.0525 55.415 53.3314C55.415 54.6103 54.9069 55.8368 54.0026 56.7411C53.0983 57.6454 51.8718 58.1534 50.593 58.1534ZM42.184 50.2674C41.7816 50.2674 41.3832 50.3467 41.0114 50.5006C40.6397 50.6546 40.3019 50.8803 40.0174 51.1648C39.7329 51.4493 39.5072 51.7871 39.3532 52.1589C39.1992 52.5306 39.12 52.9291 39.12 53.3314C39.12 53.7338 39.1992 54.1322 39.3532 54.5039C39.5072 54.8757 39.7329 55.2135 40.0174 55.498C40.3019 55.7825 40.6397 56.0082 41.0114 56.1622C41.3832 56.3162 41.7816 56.3954 42.184 56.3954H50.593C51.4056 56.3954 52.1849 56.0726 52.7596 55.498C53.3342 54.9234 53.657 54.144 53.657 53.3314C53.657 52.5188 53.3342 51.7394 52.7596 51.1648C52.1849 50.5902 51.4056 50.2674 50.593 50.2674H42.184Z" fill="#6B7280"/>
<path id="&#237;&#140;&#168;&#236;&#138;&#164; 110" d="M52.457 50.2674H42.183C40.9041 50.2674 39.6776 49.7594 38.7733 48.8551C37.869 47.9508 37.361 46.7243 37.361 45.4454C37.361 44.1665 37.869 42.94 38.7733 42.0357C39.6776 41.1314 40.9041 40.6234 42.183 40.6234H52.458C53.7369 40.6234 54.9633 41.1314 55.8676 42.0357C56.7719 42.94 57.28 44.1665 57.28 45.4454C57.28 46.7243 56.7719 47.9508 55.8676 48.8551C54.9633 49.7594 53.7369 50.2674 52.458 50.2674M42.183 42.3814C41.3704 42.3814 40.591 42.7042 40.0164 43.2788C39.4418 43.8535 39.119 44.6328 39.119 45.4454C39.119 46.258 39.4418 47.0374 40.0164 47.612C40.591 48.1866 41.3704 48.5094 42.183 48.5094H52.458C53.2706 48.5094 54.0499 48.1866 54.6245 47.612C55.1992 47.0374 55.522 46.258 55.522 45.4454C55.522 44.6328 55.1992 43.8535 54.6245 43.2788C54.0499 42.7042 53.2706 42.3814 52.458 42.3814H42.183Z" fill="#6B7280"/>
<path id="&#237;&#140;&#168;&#236;&#138;&#164; 111" d="M52.457 42.2274H42.183C40.9041 42.2274 39.6776 41.7194 38.7733 40.8151C37.869 39.9108 37.361 38.6843 37.361 37.4054C37.361 36.1266 37.869 34.9001 38.7733 33.9958C39.6776 33.0915 40.9041 32.5834 42.183 32.5834H52.458C53.7369 32.5834 54.9633 33.0915 55.8676 33.9958C56.7719 34.9001 57.28 36.1266 57.28 37.4054C57.28 38.6843 56.7719 39.9108 55.8676 40.8151C54.9633 41.7194 53.7369 42.2274 52.458 42.2274M42.183 34.3414C41.3704 34.3414 40.591 34.6642 40.0164 35.2389C39.4418 35.8135 39.119 36.5928 39.119 37.4054C39.119 38.218 39.4418 38.9974 40.0164 39.572C40.591 40.1466 41.3704 40.4694 42.183 40.4694H52.458C53.2706 40.4694 54.0499 40.1466 54.6245 39.572C55.1992 38.9974 55.522 38.218 55.522 37.4054C55.522 36.5928 55.1992 35.8135 54.6245 35.2389C54.0499 34.6642 53.2706 34.3414 52.458 34.3414H42.183Z" fill="#6B7280"/>
<path id="&#237;&#140;&#168;&#236;&#138;&#164; 112" d="M52.457 34.1874H42.183C40.9041 34.1874 39.6776 33.6794 38.7733 32.7751C37.869 31.8708 37.361 30.6443 37.361 29.3654C37.361 28.0865 37.869 26.86 38.7733 25.9557C39.6776 25.0514 40.9041 24.5434 42.183 24.5434H52.458C53.7369 24.5434 54.9633 25.0514 55.8676 25.9557C56.7719 26.86 57.28 28.0865 57.28 29.3654C57.28 30.6443 56.7719 31.8708 55.8676 32.7751C54.9633 33.6794 53.7369 34.1874 52.458 34.1874M42.183 26.3014C41.3704 26.3014 40.591 26.6242 40.0164 27.1988C39.4418 27.7734 39.119 28.5528 39.119 29.3654C39.119 30.178 39.4418 30.9574 40.0164 31.532C40.591 32.1066 41.3704 32.4294 42.183 32.4294H52.458C53.2706 32.4294 54.0499 32.1066 54.6245 31.532C55.1992 30.9574 55.522 30.178 55.522 29.3654C55.522 28.5528 55.1992 27.7734 54.6245 27.1988C54.0499 26.6242 53.2706 26.3014 52.458 26.3014H42.183Z" fill="#6B7280"/>
<path id="&#237;&#140;&#168;&#236;&#138;&#164; 113" d="M29.437 48.8254C29.2331 48.8257 29.0354 48.7551 28.8778 48.6257C28.7203 48.4963 28.6126 48.3161 28.5732 48.1161C28.5339 47.916 28.5653 47.7085 28.6621 47.529C28.7589 47.3496 28.9151 47.2094 29.104 47.1324C36.099 44.2764 34.343 30.3844 34.32 30.2484C34.3037 30.1254 34.3137 30.0003 34.3492 29.8814C34.3847 29.7625 34.4449 29.6524 34.526 29.5584L39.288 24.0344C41.48 21.4918 43.3005 18.6512 44.695 15.5974L45.92 12.9264C46.6572 11.3258 46.7989 9.51454 46.3197 7.81866C45.8405 6.12278 44.7719 4.65359 43.306 3.67543C43.2195 3.61724 43.1139 3.59454 43.0112 3.61204C42.9084 3.62954 42.8163 3.68589 42.754 3.76943L38.946 11.5094C38.9327 11.5365 38.918 11.5629 38.902 11.5884C37.7479 13.6808 36.0936 15.455 34.087 16.7524L29.687 19.3924C28.6712 20.0018 27.7299 20.7274 26.882 21.5544C25.89 22.5214 24.482 24.0874 23.129 25.6024C22.112 26.7364 21.152 27.8084 20.401 28.5884C18.5632 30.5027 16.0599 31.6373 13.409 31.7574H4.59897C4.36585 31.7574 4.14227 31.6648 3.97742 31.5C3.81258 31.3351 3.71997 31.1116 3.71997 30.8784C3.71997 30.6453 3.81258 30.4217 3.97742 30.2569C4.14227 30.092 4.36585 29.9994 4.59897 29.9994H13.339C15.5338 29.895 17.6052 28.9534 19.127 27.3684C19.856 26.6114 20.806 25.5514 21.812 24.4284C23.189 22.8924 24.612 21.3044 25.646 20.2954C26.5919 19.3731 27.642 18.564 28.775 17.8844L33.175 15.2444C34.9319 14.0983 36.377 12.5343 37.381 10.6924L41.194 2.94143C41.207 2.91443 41.222 2.88843 41.238 2.86243C41.3921 2.61629 41.5942 2.40368 41.8323 2.23727C42.0703 2.07085 42.3394 1.95403 42.6235 1.89375C42.9076 1.83348 43.2009 1.83099 43.486 1.88642C43.7711 1.94186 44.0421 2.05409 44.283 2.21643C46.0962 3.42566 47.4184 5.24221 48.0118 7.33931C48.6052 9.43641 48.4308 11.6764 47.52 13.6564L46.302 16.3234C44.8363 19.529 42.9232 22.5103 40.62 25.1784L36.109 30.4104C36.3632 32.9206 36.3528 35.4505 36.078 37.9584C35.417 43.6084 33.234 47.3434 29.766 48.7584C29.6606 48.8018 29.5479 48.8242 29.434 48.8244" fill="#6B7280"/>
<path id="&#237;&#140;&#168;&#236;&#138;&#164; 114" d="M35.375 57.9634H31.04C27.8278 57.9665 24.687 57.0156 22.016 55.2314L18.159 52.6604C16.7424 51.714 15.0766 51.2097 13.373 51.2114H4.59897C4.36585 51.2114 4.14227 51.1188 3.97742 50.954C3.81258 50.7891 3.71997 50.5656 3.71997 50.3324C3.71997 50.0993 3.81258 49.8757 3.97742 49.7109C4.14227 49.546 4.36585 49.4534 4.59897 49.4534H13.372C15.4226 49.4514 17.4277 50.0584 19.133 51.1974L22.99 53.7684C25.3724 55.36 28.1738 56.2082 31.039 56.2054H35.373C35.6061 56.2054 35.8297 56.298 35.9945 56.4629C36.1594 56.6277 36.252 56.8513 36.252 57.0844C36.252 57.3175 36.1594 57.5411 35.9945 57.706C35.8297 57.8708 35.6061 57.9634 35.373 57.9634" fill="#6B7280"/>
</g>
</g>
</svg>
