<svg width="61" height="60" viewBox="0 0 61 60" fill="none" xmlns="http://www.w3.org/2000/svg">
<g id="Icon">
<g id="&#234;&#183;&#184;&#235;&#163;&#185; 178">
<g id="Clip path group">
<mask id="mask0_6_604" style="mask-type:luminance" maskUnits="userSpaceOnUse" x="13" y="0" width="35" height="60">
<g id="clip-path">
<path id="&#236;&#130;&#172;&#234;&#176;&#129;&#237;&#152;&#149; 47" d="M47.3995 0.949493H13.6005V59.0505H47.3995V0.949493Z" fill="white"/>
</g>
</mask>
<g mask="url(#mask0_6_604)">
<g id="&#234;&#183;&#184;&#235;&#163;&#185; 177">
<path id="&#237;&#140;&#168;&#236;&#138;&#164; 104" d="M20.4135 34.5535C19.6449 34.5524 18.8931 34.3293 18.2484 33.911C17.6037 33.4926 17.0936 32.8969 16.7795 32.1955L13.9465 25.8545C13.5174 24.891 13.4881 23.7966 13.8649 22.8114C14.2417 21.8262 14.9939 21.0308 15.9565 20.5995L16.1005 20.5305C17.064 20.1015 18.1584 20.0721 19.1436 20.4489C20.1287 20.8258 20.9242 21.5779 21.3555 22.5405L24.1885 28.8815C24.6175 29.8451 24.6468 30.9395 24.27 31.9246C23.8932 32.9098 23.141 33.7052 22.1785 34.1365L22.0305 34.2025C21.5207 34.4314 20.9683 34.55 20.4095 34.5505M17.7195 21.9415C17.4092 21.9419 17.1026 22.0077 16.8195 22.1345L16.6715 22.2005C16.1338 22.4408 15.7136 22.8847 15.5032 23.4347C15.2928 23.9847 15.3094 24.5958 15.5495 25.1335L18.3825 31.4755C18.6227 32.0131 19.0667 32.4334 19.6167 32.6438C20.1667 32.8542 20.7777 32.8375 21.3155 32.5975L21.4635 32.5315C22.0007 32.2908 22.4206 31.8469 22.6309 31.297C22.8413 30.7472 22.8249 30.1363 22.5855 29.5985L19.7525 23.2565C19.577 22.8647 19.2918 22.532 18.9314 22.2986C18.571 22.0653 18.1508 21.9413 17.7215 21.9415" fill="#6B7280"/>
<path id="&#237;&#140;&#168;&#236;&#138;&#164; 105" d="M26.2215 31.9585C25.453 31.9574 24.7011 31.7343 24.0564 31.3159C23.4117 30.8976 22.9016 30.3019 22.5875 29.6005L19.1405 21.8845C18.7103 20.9211 18.6805 19.8263 19.0574 18.8408C19.4343 17.8554 20.1872 17.06 21.1505 16.6295L21.2985 16.5635C21.7755 16.3504 22.2898 16.2333 22.8121 16.219C23.3344 16.2047 23.8543 16.2934 24.3423 16.48C24.8303 16.6667 25.2768 16.9476 25.6562 17.3068C26.0355 17.666 26.3405 18.0965 26.5535 18.5735L30.0005 26.2895C30.2137 26.7667 30.3308 27.2812 30.3451 27.8037C30.3593 28.3262 30.2705 28.8463 30.0836 29.3344C29.8968 29.8226 29.6156 30.2691 29.2561 30.6485C28.8966 31.0278 28.4658 31.3327 27.9885 31.5455L27.8405 31.6115C27.3307 31.8403 26.7783 31.9589 26.2195 31.9595M22.9195 17.9755C22.6092 17.9764 22.3026 18.0425 22.0195 18.1695L21.8715 18.2355C21.3339 18.4758 20.9136 18.9197 20.7032 19.4697C20.4928 20.0197 20.5095 20.6308 20.7495 21.1685L24.1965 28.8845C24.4367 29.4221 24.8807 29.8424 25.4307 30.0528C25.9807 30.2632 26.5917 30.2465 27.1295 30.0065L27.2775 29.9405C27.8151 29.7003 28.2353 29.2563 28.4457 28.7063C28.6561 28.1563 28.6395 27.5453 28.3995 27.0075L24.9525 19.2915C24.7772 18.9001 24.4925 18.5677 24.1327 18.3342C23.7729 18.1007 23.3534 17.9762 22.9245 17.9755" fill="#6B7280"/>
<path id="&#237;&#140;&#168;&#236;&#138;&#164; 106" d="M28.7155 26.4015C28.5127 26.4014 28.3161 26.3311 28.1592 26.2026C28.0023 26.0741 27.8946 25.8953 27.8545 25.6965L23.8355 5.7735C23.6207 4.74176 23.824 3.66694 24.4009 2.785C24.9778 1.90305 25.8811 1.28607 26.9125 1.0695L27.0715 1.0365C28.1041 0.819855 29.1805 1.0222 30.0639 1.59903C30.9474 2.17587 31.5655 3.07996 31.7825 4.1125L34.5965 17.5125L37.4105 4.1125C37.6282 3.08032 38.2465 2.17665 39.1297 1.59978C40.0129 1.02292 41.0888 0.819984 42.1215 1.0355L42.2805 1.0685C43.313 1.28546 44.2171 1.90364 44.794 2.78708C45.3708 3.67052 45.5731 4.7469 45.3565 5.7795L41.6505 23.4265C41.6292 23.5418 41.5851 23.6517 41.5207 23.7497C41.4564 23.8476 41.373 23.9318 41.2757 23.9971C41.1783 24.0623 41.0688 24.1075 40.9538 24.1299C40.8387 24.1522 40.7203 24.1513 40.6055 24.1273C40.4908 24.1032 40.382 24.0564 40.2856 23.9896C40.1893 23.9229 40.1072 23.8375 40.0443 23.7386C39.9814 23.6397 39.9389 23.5292 39.9194 23.4136C39.8998 23.298 39.9036 23.1796 39.9305 23.0655L43.6365 5.4185C43.7575 4.84206 43.6447 4.24113 43.3227 3.74792C43.0007 3.2547 42.4959 2.90959 41.9195 2.7885L41.7605 2.7555C41.1841 2.63501 40.5834 2.74812 40.0904 3.07003C39.5973 3.39194 39.2521 3.89633 39.1305 4.4725L35.9615 19.5665C35.8955 19.8796 35.7238 20.1605 35.4753 20.3621C35.2268 20.5637 34.9165 20.6738 34.5965 20.6738C34.2765 20.6738 33.9662 20.5637 33.7177 20.3621C33.4692 20.1605 33.2975 19.8796 33.2315 19.5665L30.0615 4.4725C29.9404 3.89607 29.5953 3.39134 29.1021 3.06934C28.6089 2.74734 28.0079 2.63445 27.4315 2.7555L27.2725 2.7885C26.6961 2.90959 26.1913 3.2547 25.8693 3.74792C25.5473 4.24113 25.4344 4.84206 25.5555 5.4185L29.5785 25.3495C29.6245 25.578 29.5778 25.8154 29.4488 26.0094C29.3198 26.2035 29.119 26.3384 28.8905 26.3845C28.8329 26.3959 28.7742 26.4016 28.7155 26.4015Z" fill="#6B7280"/>
<path id="&#237;&#140;&#168;&#236;&#138;&#164; 107" d="M37.6415 59.0475C37.4083 59.0475 37.1848 58.9549 37.0199 58.7901C36.8551 58.6252 36.7625 58.4016 36.7625 58.1685V51.8275C36.7625 51.8135 36.7625 51.7995 36.7625 51.7865C36.8612 49.6046 37.795 47.5442 39.3705 46.0315C41.2325 44.2385 43.7985 41.6085 45.1615 40.2005C45.3234 40.0328 45.4491 39.8337 45.5308 39.6154C45.6126 39.3971 45.6485 39.1643 45.6365 38.9315L45.1235 27.7315C45.0935 27.0843 44.8502 26.4652 44.4314 25.9708C44.0126 25.4764 43.4419 25.1345 42.8085 24.9985L34.7085 23.2625C34.6563 23.2514 34.6024 23.2518 34.5504 23.2638C34.4985 23.2757 34.4498 23.2989 34.4077 23.3317C34.3657 23.3645 34.3314 23.4061 34.3071 23.4535C34.2829 23.501 34.2693 23.5532 34.2675 23.6065L34.2375 24.5065C34.2103 25.272 34.4423 26.0242 34.8961 26.6413C35.3498 27.2584 35.9987 27.7042 36.7375 27.9065L39.4555 28.6595C40.1193 28.8445 40.6929 29.2651 41.0689 29.8425C41.445 30.4199 41.5977 31.1146 41.4985 31.7965L41.2585 33.4305C41.1823 33.9677 40.899 34.4537 40.4693 34.7848C40.0395 35.1159 39.4973 35.2658 38.9585 35.2025C36.6581 34.9177 34.3279 34.9811 32.0465 35.3905C28.9735 36.0225 26.9795 37.4435 26.1195 39.6125C26.0311 39.8258 25.8625 39.9957 25.6499 40.0857C25.4373 40.1756 25.1979 40.1784 24.9833 40.0933C24.7687 40.0082 24.5963 39.8421 24.5031 39.6309C24.4099 39.4197 24.4036 39.1803 24.4855 38.9645C25.5775 36.2085 28.0025 34.4265 31.6925 33.6645C34.1569 33.2182 36.6746 33.1467 39.1605 33.4525C39.246 33.4625 39.332 33.4385 39.4 33.3858C39.4681 33.3331 39.5127 33.2558 39.5245 33.1705L39.7645 31.5365C39.802 31.2785 39.7442 31.0156 39.6019 30.7972C39.4597 30.5787 39.2426 30.4195 38.9915 30.3495L36.2735 29.5965C35.1535 29.2889 34.1701 28.6123 33.4826 27.6762C32.7951 26.74 32.4438 25.5992 32.4855 24.4385L32.5155 23.5385C32.5266 23.2286 32.6054 22.9249 32.7465 22.6487C32.8875 22.3726 33.0874 22.1307 33.332 21.94C33.5766 21.7494 33.8599 21.6146 34.1622 21.5453C34.4644 21.4759 34.7782 21.4736 35.0815 21.5385L43.1815 23.2745C44.1941 23.4926 45.1062 24.0396 45.7754 24.8302C46.4447 25.6209 46.8336 26.6107 46.8815 27.6455L47.3945 38.8455C47.4182 39.3186 47.3445 39.7915 47.178 40.235C47.0115 40.6784 46.7557 41.0829 46.4265 41.4235C45.0555 42.8395 42.4735 45.4865 40.5915 47.2975C39.3448 48.4941 38.6038 50.1226 38.5205 51.8485V58.1675C38.5205 58.4006 38.4278 58.6242 38.263 58.7891C38.0982 58.9539 37.8746 59.0475 37.6415 59.0475Z" fill="#6B7280"/>
<path id="&#237;&#140;&#168;&#236;&#138;&#164; 108" d="M21.0034 59.0505C20.7703 59.0505 20.5467 58.9579 20.3819 58.793C20.217 58.6282 20.1244 58.4046 20.1244 58.1715V51.0935C20.1278 49.7517 19.7324 48.4391 18.9884 47.3225L16.9144 44.2115C15.4562 42.0289 14.6791 39.4624 14.6814 36.8375V33.3375C14.6814 33.1044 14.774 32.8808 14.9389 32.716C15.1037 32.5511 15.3273 32.4585 15.5604 32.4585C15.7935 32.4585 16.0171 32.5511 16.1819 32.716C16.3468 32.8808 16.4394 33.1044 16.4394 33.3375V36.8375C16.4369 39.1156 17.1111 41.3431 18.3764 43.2375L20.4504 46.3485C21.3881 47.7521 21.8879 49.4025 21.8864 51.0905V58.1685C21.8864 58.2839 21.8637 58.3983 21.8195 58.5049C21.7753 58.6115 21.7106 58.7084 21.6289 58.7901C21.5473 58.8717 21.4504 58.9364 21.3438 58.9806C21.2371 59.0248 21.1228 59.0475 21.0074 59.0475" fill="#6B7280"/>
</g>
</g>
</g>
</g>
</g>
</svg>
