<svg width="60" height="60" viewBox="0 0 60 60" fill="none" xmlns="http://www.w3.org/2000/svg">
<g id="Icon">
<g id="&#234;&#183;&#184;&#235;&#163;&#185; 210">
<g id="Clip path group">
<mask id="mask0_6_588" style="mask-type:luminance" maskUnits="userSpaceOnUse" x="13" y="1" width="34" height="58">
<g id="clip-path">
<path id="&#236;&#130;&#172;&#234;&#176;&#129;&#237;&#152;&#149; 60" d="M46.5961 1.1445H13.4041V58.8555H46.5961V1.1445Z" fill="white"/>
</g>
</mask>
<g mask="url(#mask0_6_588)">
<g id="&#234;&#183;&#184;&#235;&#163;&#185; 209">
<path id="&#237;&#140;&#168;&#236;&#138;&#164; 146" d="M40.7701 37.1605C40.5775 37.1605 40.3929 37.084 40.2567 36.9478C40.1206 36.8117 40.0441 36.627 40.0441 36.4345V29.7895C40.0441 29.3056 39.8519 28.8415 39.5097 28.4994C39.1676 28.1572 38.7035 27.965 38.2196 27.965C37.7357 27.965 37.2716 28.1572 36.9295 28.4994C36.5873 28.8415 36.3951 29.3056 36.3951 29.7895V36.4315C36.3881 36.6192 36.3086 36.797 36.1733 36.9273C36.038 37.0577 35.8575 37.1305 35.6696 37.1305C35.4817 37.1305 35.3012 37.0577 35.1659 36.9273C35.0306 36.797 34.9511 36.6192 34.9441 36.4315V29.7865C34.9365 29.3515 35.0156 28.9194 35.1768 28.5153C35.338 28.1113 35.5781 27.7434 35.883 27.4331C36.1879 27.1228 36.5515 26.8763 36.9527 26.7081C37.3539 26.5399 37.7846 26.4532 38.2196 26.4532C38.6546 26.4532 39.0853 26.5399 39.4865 26.7081C39.8877 26.8763 40.2513 27.1228 40.5562 27.4331C40.8611 27.7434 41.1012 28.1113 41.2624 28.5153C41.4236 28.9194 41.5027 29.3515 41.4951 29.7865V36.4315C41.4951 36.624 41.4186 36.8087 41.2825 36.9448C41.1463 37.081 40.9616 37.1575 40.7691 37.1575" fill="#6B7280"/>
<path id="&#237;&#140;&#168;&#236;&#138;&#164; 147" d="M35.57 37.1605C35.3775 37.1605 35.1928 37.084 35.0567 36.9478C34.9205 36.8117 34.844 36.627 34.844 36.4345V27.7865C34.844 27.3026 34.6518 26.8385 34.3096 26.4964C33.9675 26.1542 33.5034 25.962 33.0195 25.962C32.5356 25.962 32.0716 26.1542 31.7294 26.4964C31.3873 26.8385 31.195 27.3026 31.195 27.7865V36.4345C31.1987 36.532 31.1826 36.6293 31.1477 36.7205C31.1129 36.8117 31.0601 36.8949 30.9923 36.9652C30.9246 37.0355 30.8434 37.0914 30.7536 37.1295C30.6637 37.1677 30.5671 37.1874 30.4695 37.1874C30.3719 37.1874 30.2753 37.1677 30.1855 37.1295C30.0957 37.0914 30.0145 37.0355 29.9467 36.9652C29.879 36.8949 29.8261 36.8117 29.7913 36.7205C29.7565 36.6293 29.7404 36.532 29.744 36.4345V27.7865C29.7364 27.3515 29.8155 26.9194 29.9767 26.5154C30.1379 26.1113 30.378 25.7434 30.6829 25.4331C30.9878 25.1228 31.3515 24.8764 31.7527 24.7081C32.1538 24.5399 32.5845 24.4532 33.0195 24.4532C33.4546 24.4532 33.8852 24.5399 34.2864 24.7081C34.6876 24.8764 35.0513 25.1228 35.3562 25.4331C35.6611 25.7434 35.9011 26.1113 36.0623 26.5154C36.2235 26.9194 36.3026 27.3515 36.295 27.7865V36.4345C36.295 36.627 36.2185 36.8117 36.0824 36.9478C35.9462 37.084 35.7616 37.1605 35.569 37.1605" fill="#6B7280"/>
<path id="&#237;&#140;&#168;&#236;&#138;&#164; 148" d="M25.2701 40.5785C25.0775 40.5785 24.8929 40.502 24.7567 40.3658C24.6206 40.2297 24.5441 40.045 24.5441 39.8525V14.4845C24.5365 14.0495 24.6156 13.6174 24.7768 13.2133C24.938 12.8093 25.178 12.4414 25.4829 12.1311C25.7879 11.8208 26.1515 11.5744 26.5527 11.4061C26.9539 11.2379 27.3845 11.1512 27.8196 11.1512C28.2546 11.1512 28.6853 11.2379 29.0865 11.4061C29.4876 11.5744 29.8513 11.8208 30.1562 12.1311C30.4611 12.4414 30.7012 12.8093 30.8624 13.2133C31.0236 13.6174 31.1027 14.0495 31.0951 14.4845V36.4315C31.0987 36.529 31.0826 36.6263 31.0478 36.7175C31.013 36.8087 30.9601 36.8919 30.8924 36.9622C30.8247 37.0325 30.7434 37.0884 30.6536 37.1265C30.5638 37.1647 30.4672 37.1844 30.3696 37.1844C30.272 37.1844 30.1754 37.1647 30.0855 37.1265C29.9957 37.0884 29.9145 37.0325 29.8468 36.9622C29.779 36.8919 29.7262 36.8087 29.6914 36.7175C29.6565 36.6263 29.6405 36.529 29.6441 36.4315V14.4845C29.6329 14.008 29.4358 13.5548 29.0949 13.2217C28.7539 12.8887 28.2962 12.7022 27.8196 12.7022C27.343 12.7022 26.8852 12.8887 26.5443 13.2217C26.2034 13.5548 26.0062 14.008 25.9951 14.4845V39.8525C25.9951 40.045 25.9186 40.2297 25.7824 40.3658C25.6463 40.502 25.4626 40.5785 25.2701 40.5785Z" fill="#6B7280"/>
<path id="&#237;&#140;&#168;&#236;&#138;&#164; 149" d="M27.2831 58.8555C27.0906 58.8555 26.9059 58.779 26.7697 58.6429C26.6336 58.5067 26.5571 58.322 26.5571 58.1295V55.0935C26.4903 53.7153 25.8985 52.415 24.9031 51.4595C23.6031 50.2085 19.9461 43.2475 19.4031 41.8595C19.2084 41.3637 19.1561 40.8234 19.2521 40.2995L20.2931 34.5925C20.3826 34.1009 20.5773 33.6344 20.8641 33.2252C21.1508 32.8159 21.5226 32.4735 21.9541 32.2215L24.5341 30.7125C24.6165 30.6619 24.7081 30.6282 24.8037 30.6135C24.8992 30.5987 24.9967 30.6032 25.0905 30.6267C25.1843 30.6502 25.2724 30.6921 25.3498 30.7501C25.4271 30.8081 25.4921 30.881 25.5409 30.9644C25.5898 31.0478 25.6214 31.1402 25.6341 31.236C25.6467 31.3319 25.6401 31.4293 25.6146 31.5225C25.5891 31.6158 25.5452 31.703 25.4855 31.7791C25.4259 31.8551 25.3516 31.9185 25.2671 31.9655L22.6871 33.4745C22.4362 33.6211 22.2199 33.8202 22.0532 34.0583C21.8864 34.2963 21.7732 34.5676 21.7211 34.8535L20.6801 40.5605C20.633 40.8188 20.659 41.0851 20.7551 41.3295C20.9881 41.9225 21.9661 43.8775 23.1391 46.0005C23.9162 47.558 24.8443 49.0354 25.9101 50.4115C27.178 51.6276 27.9299 53.2845 28.0101 55.0395C28.0101 55.0505 28.0101 55.0625 28.0101 55.0735V58.1285C28.0101 58.321 27.9336 58.5057 27.7975 58.6419C27.6613 58.778 27.4767 58.8545 27.2841 58.8545" fill="#6B7280"/>
<path id="&#237;&#140;&#168;&#236;&#138;&#164; 150" d="M41.3801 58.8555C41.1875 58.8555 41.0029 58.779 40.8667 58.6428C40.7306 58.5067 40.6541 58.322 40.6541 58.1295V55.0675C40.653 53.7101 41.055 52.383 41.8091 51.2545L43.4721 48.7595C44.4843 47.2443 45.0238 45.4627 45.0221 43.6405L45.1441 30.9885C45.1431 30.5046 44.95 30.0409 44.6072 29.6994C44.2644 29.3579 43.8 29.1666 43.3161 29.1675C42.8322 29.1684 42.3685 29.3615 42.027 29.7043C41.6855 30.0471 41.4941 30.5116 41.4951 30.9955V36.4345C41.4881 36.6222 41.4086 36.8 41.2733 36.9303C41.138 37.0607 40.9575 37.1335 40.7696 37.1335C40.5817 37.1335 40.4011 37.0607 40.2658 36.9303C40.1305 36.8 40.051 36.6222 40.0441 36.4345V30.9955C40.0591 30.1367 40.4108 29.3181 41.0234 28.7161C41.6361 28.114 42.4606 27.7767 43.3196 27.7767C44.1785 27.7767 45.0031 28.114 45.6157 28.7161C46.2284 29.3181 46.5801 30.1367 46.5951 30.9955L46.4731 43.6475C46.474 45.7539 45.8497 47.8132 44.6791 49.5645L43.0161 52.0595C42.4212 52.9498 42.1041 53.9967 42.1051 55.0675V58.1295C42.1051 58.322 42.0286 58.5067 41.8924 58.6428C41.7563 58.779 41.5716 58.8555 41.3791 58.8555" fill="#6B7280"/>
<path id="&#237;&#140;&#168;&#236;&#138;&#164; 151" d="M23.4941 39.8085C23.3599 39.8083 23.2285 39.771 23.1142 39.7006C23 39.6302 22.9075 39.5296 22.847 39.4099C22.7865 39.2901 22.7604 39.1559 22.7715 39.0223C22.7827 38.8886 22.8306 38.7606 22.9101 38.6525L24.5851 36.3795C24.702 36.2323 24.8715 36.1362 25.0579 36.1115C25.2443 36.0867 25.433 36.1352 25.5843 36.2467C25.7356 36.3583 25.8378 36.5242 25.8692 36.7095C25.9007 36.8949 25.8591 37.0852 25.7531 37.2405L24.0781 39.5135C24.0111 39.6061 23.9232 39.6815 23.8215 39.7336C23.7199 39.7858 23.6073 39.8131 23.4931 39.8135" fill="#6B7280"/>
<path id="&#237;&#140;&#168;&#236;&#138;&#164; 152" d="M21.597 21.9615C21.4359 21.9617 21.2766 21.9278 21.1296 21.8619C20.9826 21.7961 20.8511 21.6998 20.744 21.5795C19.5661 20.2591 18.7905 18.6293 18.5088 16.8824C18.2271 15.1355 18.451 13.3445 19.1541 11.7207C19.8572 10.097 21.0102 8.70824 22.4769 7.71846C23.9436 6.72868 25.6629 6.17916 27.4318 6.13476C29.2007 6.09035 30.9453 6.55292 32.4599 7.46786C33.9744 8.38281 35.1956 9.71194 35.9793 11.2984C36.763 12.8848 37.0765 14.6623 36.8828 16.4211C36.689 18.18 35.9962 19.8466 34.886 21.2245C34.7929 21.3444 34.6767 21.4445 34.5444 21.5191C34.4121 21.5936 34.2663 21.641 34.1154 21.6585C33.9646 21.6761 33.8118 21.6634 33.6659 21.6212C33.52 21.579 33.384 21.5082 33.2659 21.4128C33.1477 21.3175 33.0496 21.1996 32.9775 21.0659C32.9054 20.9323 32.8607 20.7856 32.8459 20.6345C32.8311 20.4833 32.8466 20.3308 32.8914 20.1857C32.9363 20.0406 33.0096 19.9059 33.107 19.7895C34.1128 18.5508 34.6587 17.0021 34.652 15.4065C34.6525 14.2739 34.3776 13.1581 33.8511 12.1553C33.3246 11.1525 32.5622 10.2927 31.6296 9.6499C30.6971 9.00714 29.6222 8.60071 28.4977 8.46559C27.3731 8.33047 26.2326 8.47072 25.1743 8.87427C24.116 9.27781 23.1716 9.93255 22.4226 10.7821C21.6735 11.6316 21.1421 12.6505 20.8743 13.751C20.6064 14.8515 20.61 16.0007 20.8849 17.0994C21.1598 18.1982 21.6976 19.2137 22.452 20.0585C22.5975 20.2231 22.6925 20.4262 22.7256 20.6434C22.7587 20.8606 22.7285 21.0827 22.6386 21.2832C22.5487 21.4836 22.4029 21.654 22.2187 21.7737C22.0345 21.8935 21.8197 21.9576 21.6 21.9585" fill="#6B7280"/>
<path id="&#237;&#140;&#168;&#236;&#138;&#164; 153" d="M21.3941 28.0745C21.2032 28.0744 21.0154 28.0262 20.8481 27.9345C18.36 26.5801 16.3317 24.5154 15.0218 22.0037C13.7119 19.4919 13.1797 16.647 13.4933 13.8316C13.8068 11.0162 14.9517 8.35793 16.7821 6.19587C18.6125 4.03382 21.0453 2.46591 23.7704 1.6921C26.4955 0.918299 29.3893 0.973661 32.0827 1.85113C34.7762 2.7286 37.1473 4.38842 38.8937 6.6189C40.64 8.84939 41.6824 11.5495 41.888 14.3748C42.0936 17.2001 41.4531 20.0227 40.0481 22.4825C39.8962 22.7436 39.6471 22.9339 39.3552 23.0119C39.0634 23.0899 38.7525 23.0492 38.4906 22.8987C38.2287 22.7482 38.037 22.5001 37.9575 22.2087C37.8779 21.9173 37.917 21.6062 38.0661 21.3435C39.2451 19.2772 39.7821 16.9066 39.6084 14.5339C39.4348 12.1612 38.5584 9.89403 37.0911 8.02143C35.6237 6.14882 33.6319 4.75568 31.3696 4.01964C29.1073 3.2836 26.6771 3.23802 24.3888 3.88872C22.1005 4.53942 20.0578 5.8569 18.5213 7.67317C16.9848 9.48944 16.024 11.7222 15.7615 14.0867C15.499 16.4512 15.9467 18.8403 17.0475 20.9493C18.1482 23.0583 19.8522 24.7918 21.9421 25.9285C22.1649 26.0502 22.3408 26.2427 22.4421 26.4755C22.5434 26.7084 22.5642 26.9683 22.5014 27.2143C22.4386 27.4603 22.2957 27.6784 22.0951 27.8341C21.8946 27.9899 21.648 28.0745 21.3941 28.0745Z" fill="#6B7280"/>
</g>
</g>
</g>
</g>
</g>
</svg>
