<svg width="60" height="60" viewBox="0 0 60 60" fill="none" xmlns="http://www.w3.org/2000/svg">
<g id="Icon">
<g id="Group 4">
<path id="&#237;&#140;&#168;&#236;&#138;&#164; 107" d="M39.5419 33.2107L39.5182 33.2205L39.4957 33.2327C39.4389 33.2633 39.3751 33.2786 39.3106 33.2772C39.2461 33.2757 39.1831 33.2575 39.1278 33.2243C39.0725 33.1911 39.0267 33.1441 38.995 33.0879C38.9634 33.0318 38.9468 32.9683 38.9471 32.9039C38.9471 32.9038 38.9471 32.9038 38.9471 32.9038L39.0921 8.92617L39.0921 8.92451C39.0941 8.20384 38.811 7.51163 38.3046 6.99884C37.7982 6.48604 37.1097 6.19428 36.389 6.18717V6.18714H36.3841L36.3721 6.18714L36.3701 6.18715C35.6524 6.19001 34.9647 6.47539 34.4558 6.9815C33.947 7.48762 33.6579 8.17377 33.6511 8.89144L33.6511 8.89334L33.5511 26.7057C33.5511 26.7057 33.5511 26.7058 33.5511 26.7058C33.5493 26.9556 33.449 27.1945 33.2719 27.3706C33.0948 27.5468 32.8552 27.6458 32.6054 27.6461H32.5998C32.3495 27.6442 32.1101 27.5433 31.934 27.3653C31.7575 27.187 31.659 26.946 31.6601 26.6952L31.7781 5.20089L31.7781 5.20018C31.781 4.47905 31.4978 3.7862 30.9905 3.27365C30.4832 2.76109 29.7934 2.47069 29.0722 2.46614H29.0691L29.0571 2.46614L29.0566 2.46614C28.3378 2.46678 27.6485 2.75159 27.1388 3.25848C26.6292 3.76537 26.3406 4.45321 26.3361 5.172L26.3361 5.1724L26.2181 26.6724C26.2167 26.9231 26.1158 27.1631 25.9375 27.3394C25.7592 27.5158 25.5181 27.614 25.2674 27.6127C25.0166 27.6113 24.7766 27.5103 24.6003 27.332C24.424 27.1537 24.3257 26.9127 24.3271 26.662C24.3271 26.662 24.3271 26.6619 24.3271 26.6619L24.4271 8.99497L24.4271 8.99261C24.4278 8.27258 24.144 7.58144 23.6375 7.06967C23.131 6.5579 22.4428 6.26695 21.7228 6.26017V6.26014H21.7181H21.7061H21.7059C20.9877 6.26044 20.2987 6.54445 19.789 7.05031C19.2792 7.55618 18.9899 8.24295 18.9841 8.9611L18.9841 8.96231L18.8841 26.6293V26.6294C18.8827 26.8791 18.7825 27.1181 18.6055 27.2942C18.4284 27.4703 18.1888 27.5691 17.9391 27.5691H17.9331H17.5744C17.4507 27.5684 17.3282 27.5434 17.2141 27.4954C17.0996 27.4473 16.9957 27.3771 16.9084 27.2889C16.8211 27.2007 16.752 27.0961 16.7051 26.9811C16.6582 26.8662 16.6344 26.7431 16.6351 26.619C16.6351 26.619 16.6351 26.6189 16.6351 26.6189L16.699 15.4856C16.699 15.4848 16.6991 15.484 16.6991 15.4832C16.7073 14.892 16.498 14.3184 16.1108 13.8715C15.7231 13.4239 15.1842 13.1348 14.5969 13.0592L14.5969 13.0591L14.5862 13.058C14.2575 13.0229 13.9251 13.0577 13.6109 13.1603C13.2972 13.2627 13.0087 13.4301 12.7643 13.6518C12.5197 13.871 12.3235 14.1388 12.1881 14.438C12.0525 14.7379 11.9809 15.0627 11.9781 15.3918L11.9781 15.3935L11.8271 44.2835C11.8212 45.4344 12.139 46.8075 12.6641 48.0106C13.1828 49.1992 13.9462 50.3185 14.8998 50.8583L14.9 50.8584C15.4595 51.1748 15.9246 51.6346 16.2473 52.1905C16.5701 52.7464 16.7388 53.3783 16.7361 54.0211V54.0231V57.9239C16.7312 58.0179 16.6909 58.1066 16.6231 58.1721C16.5538 58.2391 16.4611 58.2766 16.3646 58.2766C16.2681 58.2766 16.1754 58.2391 16.106 58.1721C16.0383 58.1066 15.998 58.0179 15.9931 57.9239V54.0249C15.9964 53.5145 15.8638 53.0124 15.6087 52.5703C15.3533 52.1276 14.9845 51.7611 14.5402 51.5085L14.5394 51.508C13.5131 50.9271 12.6406 49.7839 12.0232 48.4154C11.409 47.0538 11.0775 45.5342 11.0841 44.2778L10.5841 44.2751L11.0841 44.2778L11.2351 15.3892C11.2351 15.389 11.2351 15.3888 11.2351 15.3885C11.2387 14.9559 11.3325 14.5288 11.5106 14.1345C11.6888 13.74 11.9474 13.387 12.2698 13.0981C12.5922 12.8093 12.9714 12.5909 13.383 12.457C13.7936 12.3235 14.2275 12.2769 14.6571 12.3202C15.2344 12.3876 15.7817 12.614 16.2378 12.9744C16.6948 13.3354 17.0422 13.8166 17.2412 14.3639L18.2111 14.1959L18.2401 8.96242C18.2461 8.04708 18.6136 7.17121 19.2626 6.52568C19.9115 5.88024 20.7891 5.51738 21.7043 5.51614C21.7045 5.51614 21.7046 5.51614 21.7047 5.51614L21.7239 5.51614C22.3128 5.51919 22.8911 5.67227 23.4044 5.96092C23.9181 6.24978 24.3496 6.66486 24.6581 7.16693L25.574 8.65737L25.5841 6.90802L25.5941 5.16942C25.6001 4.25423 25.9675 3.3785 26.6163 2.73299C27.265 2.08757 28.1424 1.7246 29.0575 1.72314H29.0761C29.9938 1.73055 30.8713 2.10089 31.5169 2.75329C32.1627 3.40598 32.5237 4.28785 32.5211 5.20602C32.5211 5.20622 32.5211 5.20642 32.5211 5.20662L32.5121 6.79932L32.5022 8.55691L33.4357 7.06772C33.7473 6.57064 34.1801 6.16083 34.6933 5.87668C35.2065 5.59256 35.7835 5.44339 36.3701 5.44314C36.3701 5.44314 36.3702 5.44314 36.3703 5.44314L36.3891 5.44314C37.3068 5.45055 38.1843 5.8209 38.8299 6.47329C39.4757 7.126 39.8368 8.0079 39.8341 8.9261C39.8341 8.92627 39.8341 8.92645 39.8341 8.92662L39.6971 31.4367L39.6927 32.154L40.3673 31.9099L43.3242 30.8395L43.6253 31.521L39.5419 33.2107Z" fill="#6B7280" stroke="#6B7280"/>
<path id="Vector 603" d="M37.884 58.6716V53.3188C37.8319 52.8284 37.5993 49.3695 41.375 46.8894C43.3698 45.6133 47.4997 40.9697 48.2761 34.543" stroke="#6B7280" stroke-width="1.7"/>
<g id="&#237;&#140;&#168;&#236;&#138;&#164; 106">
<mask id="path-3-inside-1_6_626" fill="white">
<path d="M34.6803 36.2877C34.6982 35.4715 34.9386 34.6915 35.3725 34.0415C35.8065 33.3916 36.4155 32.8993 37.1262 32.624L43.5518 30.142C44.5282 29.7664 45.6271 29.8262 46.6075 30.3083C47.5879 30.7904 48.3698 31.6555 48.7815 32.7136L48.8476 32.8723C49.2571 33.9314 49.2626 35.0962 48.8629 36.1112C48.4632 37.1262 47.6909 37.9086 46.7155 38.2866L40.29 40.7686C39.3136 41.1442 38.2146 41.0844 37.2342 40.6023C36.2538 40.1202 35.472 39.2551 35.0602 38.197L34.9972 38.0343C34.7787 37.4738 34.6717 36.8772 34.6834 36.2837M47.3962 34.4746C47.4026 34.1451 47.3433 33.8139 47.2222 33.5027L47.1592 33.34C46.9298 32.749 46.4935 32.2658 45.9461 31.9966C45.3988 31.7274 44.7852 31.6943 44.2403 31.9045L37.8137 34.3864C37.2689 34.5969 36.8375 35.0334 36.6143 35.6001C36.3911 36.1668 36.3945 36.8172 36.6236 37.4083L36.6866 37.5709C36.9163 38.1616 37.3527 38.6444 37.8999 38.9135C38.4471 39.1827 39.0605 39.2161 39.6055 39.0064L46.032 36.5246C46.4291 36.3708 46.7692 36.0955 47.0113 35.7322C47.2533 35.3688 47.387 34.9328 47.3962 34.4767"/>
</mask>
<path d="M34.6803 36.2877C34.6982 35.4715 34.9386 34.6915 35.3725 34.0415C35.8065 33.3916 36.4155 32.8993 37.1262 32.624L43.5518 30.142C44.5282 29.7664 45.6271 29.8262 46.6075 30.3083C47.5879 30.7904 48.3698 31.6555 48.7815 32.7136L48.8476 32.8723C49.2571 33.9314 49.2626 35.0962 48.8629 36.1112C48.4632 37.1262 47.6909 37.9086 46.7155 38.2866L40.29 40.7686C39.3136 41.1442 38.2146 41.0844 37.2342 40.6023C36.2538 40.1202 35.472 39.2551 35.0602 38.197L34.9972 38.0343C34.7787 37.4738 34.6717 36.8772 34.6834 36.2837M47.3962 34.4746C47.4026 34.1451 47.3433 33.8139 47.2222 33.5027L47.1592 33.34C46.9298 32.749 46.4935 32.2658 45.9461 31.9966C45.3988 31.7274 44.7852 31.6943 44.2403 31.9045L37.8137 34.3864C37.2689 34.5969 36.8375 35.0334 36.6143 35.6001C36.3911 36.1668 36.3945 36.8172 36.6236 37.4083L36.6866 37.5709C36.9163 38.1616 37.3527 38.6444 37.8999 38.9135C38.4471 39.1827 39.0605 39.2161 39.6055 39.0064L46.032 36.5246C46.4291 36.3708 46.7692 36.0955 47.0113 35.7322C47.2533 35.3688 47.387 34.9328 47.3962 34.4767" fill="#6B7280"/>
<path d="M37.1262 32.624L36.7659 31.6911L36.765 31.6915L37.1262 32.624ZM43.5518 30.142L43.1927 29.2087L43.1915 29.2092L43.5518 30.142ZM48.7815 32.7136L47.8496 33.0763L47.8539 33.0873L47.8584 33.0982L48.7815 32.7136ZM48.8476 32.8723L49.7803 32.5117L49.7757 32.4997L49.7708 32.4878L48.8476 32.8723ZM46.7155 38.2866L47.0758 39.2195L47.0769 39.2191L46.7155 38.2866ZM40.29 40.7686L40.649 41.7019L40.6503 41.7014L40.29 40.7686ZM35.0602 38.197L34.1277 38.5581L34.1283 38.5596L35.0602 38.197ZM34.9972 38.0343L35.9297 37.6732L35.9289 37.671L34.9972 38.0343ZM47.2222 33.5027L46.2897 33.8638L46.2902 33.8652L47.2222 33.5027ZM47.1592 33.34L48.0917 32.9789L48.0915 32.9782L47.1592 33.34ZM44.2403 31.9045L43.8803 30.9716L43.88 30.9717L44.2403 31.9045ZM37.8137 34.3864L37.4535 33.4535L37.4533 33.4536L37.8137 34.3864ZM36.6236 37.4083L37.5561 37.0472L37.556 37.0469L36.6236 37.4083ZM36.6866 37.5709L35.754 37.932L35.7546 37.9335L36.6866 37.5709ZM39.6055 39.0064L39.9645 39.9397L39.9657 39.9393L39.6055 39.0064ZM46.032 36.5246L46.3923 37.4574L46.3932 37.4571L46.032 36.5246ZM35.6801 36.3096C35.694 35.6746 35.8807 35.0813 36.2042 34.5968L34.5408 33.4863C33.9965 34.3017 33.7025 35.2684 33.6806 36.2657L35.6801 36.3096ZM36.2042 34.5968C36.527 34.1133 36.9737 33.7555 37.4874 33.5564L36.765 31.6915C35.8572 32.0431 35.086 32.6698 34.5408 33.4863L36.2042 34.5968ZM37.4865 33.5568L43.9121 31.0749L43.1915 29.2092L36.7659 31.6911L37.4865 33.5568ZM43.9108 31.0754C44.6143 30.8047 45.4234 30.8404 46.1663 31.2057L47.0488 29.411C45.8308 28.812 44.442 28.7281 43.1927 29.2087L43.9108 31.0754ZM46.1663 31.2057C46.9124 31.5726 47.5247 32.2414 47.8496 33.0763L49.7135 32.351C49.2148 31.0695 48.2635 30.0083 47.0488 29.411L46.1663 31.2057ZM47.8584 33.0982L47.9245 33.2568L49.7708 32.4878L49.7047 32.3291L47.8584 33.0982ZM47.9149 33.233C48.238 34.0685 48.2362 34.9736 47.9325 35.7448L49.7934 36.4776C50.2891 35.2188 50.2763 33.7943 49.7803 32.5117L47.9149 33.233ZM47.9325 35.7448C47.6301 36.5125 47.0568 37.0819 46.3541 37.3542L47.0769 39.2191C48.3251 38.7353 49.2963 37.7399 49.7934 36.4776L47.9325 35.7448ZM46.3552 37.3538L39.9296 39.8357L40.6503 41.7014L47.0758 39.2195L46.3552 37.3538ZM39.9309 39.8352C39.2274 40.1059 38.4183 40.0702 37.6755 39.7049L36.793 41.4996C38.011 42.0986 39.3998 42.1825 40.649 41.7019L39.9309 39.8352ZM37.6755 39.7049C36.9294 39.338 36.317 38.6692 35.9921 37.8343L34.1283 38.5596C34.6269 39.8411 35.5782 40.9023 36.793 41.4996L37.6755 39.7049ZM35.9927 37.8359L35.9297 37.6732L34.0647 38.3954L34.1277 38.5581L35.9927 37.8359ZM35.9289 37.671C35.7573 37.2308 35.6742 36.7643 35.6832 36.3034L33.6836 36.264C33.6693 36.9902 33.8001 37.7168 34.0655 38.3976L35.9289 37.671ZM48.396 34.4939C48.4049 34.0321 48.3219 33.5713 48.1542 33.1401L46.2902 33.8652C46.3646 34.0565 46.4002 34.258 46.3964 34.4553L48.396 34.4939ZM48.1547 33.1416L48.0917 32.9789L46.2267 33.7011L46.2897 33.8638L48.1547 33.1416ZM48.0915 32.9782C47.7753 32.1636 47.1694 31.4838 46.3875 31.0992L45.5048 32.8939C45.8176 33.0478 46.0844 33.3344 46.2269 33.7018L48.0915 32.9782ZM46.3875 31.0992C45.6022 30.7131 44.6984 30.6559 43.8803 30.9716L44.6002 32.8375C44.872 32.7326 45.1954 32.7417 45.5048 32.8939L46.3875 31.0992ZM43.88 30.9717L37.4535 33.4535L38.174 35.3192L44.6005 32.8374L43.88 30.9717ZM37.4533 33.4536C36.6353 33.7696 36.0046 34.4194 35.6839 35.2337L37.5448 35.9666C37.6704 35.6475 37.9025 35.4241 38.1741 35.3192L37.4533 33.4536ZM35.6839 35.2337C35.3646 36.0444 35.3753 36.9549 35.6912 37.7697L37.556 37.0469C37.4136 36.6795 37.4177 36.2892 37.5448 35.9666L35.6839 35.2337ZM35.691 37.7694L35.754 37.932L37.6191 37.2099L37.5561 37.0472L35.691 37.7694ZM35.7546 37.9335C36.0712 38.7475 36.6771 39.4266 37.4586 39.8109L38.3412 38.0162C38.0283 37.8623 37.7614 37.5757 37.6185 37.2084L35.7546 37.9335ZM37.4586 39.8109C38.2434 40.1969 39.1467 40.2544 39.9645 39.9397L39.2464 38.0731C38.9744 38.1778 38.6508 38.1685 38.3412 38.0162L37.4586 39.8109ZM39.9657 39.9393L46.3923 37.4574L45.6718 35.5917L39.2452 38.0736L39.9657 39.9393ZM46.3932 37.4571C46.9877 37.2268 47.4903 36.8169 47.8435 36.2865L46.179 35.1778C46.0481 35.3742 45.8705 35.5147 45.6708 35.5921L46.3932 37.4571ZM47.8435 36.2865C48.196 35.7574 48.3832 35.1343 48.396 34.4968L46.3964 34.4567C46.3908 34.7312 46.3106 34.9802 46.179 35.1778L47.8435 36.2865Z" fill="#6B7280" mask="url(#path-3-inside-1_6_626)"/>
</g>
</g>
</g>
</svg>
